<svg width="149" height="85" viewBox="0 0 149 85" fill="none" xmlns="http://www.w3.org/2000/svg">
<path d="M22.2473 14.362C22.4633 14.254 22.6973 14.2 22.9493 14.2H25.8653C26.2253 14.2 26.4053 14.38 26.4053 14.74V51.46C26.4053 51.82 26.2253 52 25.8653 52H23.1113C22.7513 52 22.5713 51.82 22.5713 51.46V18.574C22.5713 18.502 22.5353 18.448 22.4633 18.412C22.4273 18.376 22.3733 18.376 22.3013 18.412L16.5773 20.734L16.3613 20.788C16.1453 20.788 16.0013 20.644 15.9293 20.356L15.6593 18.304V18.196C15.6593 18.016 15.7853 17.836 16.0373 17.656L22.2473 14.362ZM46.5803 52.54C43.1243 52.54 40.3703 51.55 38.3183 49.57C36.2663 47.59 35.2403 44.944 35.2403 41.632V24.568C35.2403 21.256 36.2663 18.628 38.3183 16.684C40.3703 14.704 43.1243 13.714 46.5803 13.714C50.0723 13.714 52.8623 14.704 54.9503 16.684C57.0383 18.664 58.0823 21.292 58.0823 24.568V41.632C58.0823 44.944 57.0383 47.59 54.9503 49.57C52.8623 51.55 50.0723 52.54 46.5803 52.54ZM46.5803 49.192C48.8843 49.192 50.7383 48.526 52.1423 47.194C53.5463 45.862 54.2483 44.08 54.2483 41.848V24.406C54.2483 22.21 53.5463 20.446 52.1423 19.114C50.7743 17.782 48.9203 17.116 46.5803 17.116C44.3123 17.116 42.4943 17.782 41.1263 19.114C39.7583 20.446 39.0743 22.21 39.0743 24.406V41.848C39.0743 44.08 39.7583 45.862 41.1263 47.194C42.4943 48.526 44.3123 49.192 46.5803 49.192ZM77.1135 52.54C73.6575 52.54 70.9035 51.55 68.8515 49.57C66.7995 47.59 65.7735 44.944 65.7735 41.632V24.568C65.7735 21.256 66.7995 18.628 68.8515 16.684C70.9035 14.704 73.6575 13.714 77.1135 13.714C80.6055 13.714 83.3955 14.704 85.4835 16.684C87.5715 18.664 88.6155 21.292 88.6155 24.568V41.632C88.6155 44.944 87.5715 47.59 85.4835 49.57C83.3955 51.55 80.6055 52.54 77.1135 52.54ZM77.1135 49.192C79.4175 49.192 81.2715 48.526 82.6755 47.194C84.0795 45.862 84.7815 44.08 84.7815 41.848V24.406C84.7815 22.21 84.0795 20.446 82.6755 19.114C81.3075 17.782 79.4535 17.116 77.1135 17.116C74.8455 17.116 73.0275 17.782 71.6595 19.114C70.2915 20.446 69.6075 22.21 69.6075 24.406V41.848C69.6075 44.08 70.2915 45.862 71.6595 47.194C73.0275 48.526 74.8455 49.192 77.1135 49.192Z" fill="#191919"/>
<path d="M105.465 29.05C104.061 29.05 102.765 28.708 101.577 28.024C100.389 27.34 99.4353 26.422 98.7153 25.27C98.0313 24.082 97.6893 22.786 97.6893 21.382C97.6893 19.978 98.0313 18.7 98.7153 17.548C99.4353 16.36 100.389 15.424 101.577 14.74C102.765 14.056 104.061 13.714 105.465 13.714C106.869 13.714 108.165 14.056 109.353 14.74C110.541 15.424 111.477 16.36 112.161 17.548C112.845 18.7 113.187 19.978 113.187 21.382C113.187 22.786 112.845 24.082 112.161 25.27C111.477 26.422 110.541 27.34 109.353 28.024C108.165 28.708 106.869 29.05 105.465 29.05ZM104.223 52C104.007 52 103.863 51.946 103.791 51.838C103.719 51.694 103.737 51.532 103.845 51.352L124.311 14.578C124.491 14.326 124.707 14.2 124.959 14.2H126.687C126.903 14.2 127.047 14.272 127.119 14.416C127.191 14.524 127.173 14.668 127.065 14.848L106.653 51.622C106.545 51.874 106.329 52 106.005 52H104.223ZM105.465 26.566C106.905 26.566 108.111 26.062 109.083 25.054C110.091 24.046 110.595 22.822 110.595 21.382C110.595 19.942 110.091 18.718 109.083 17.71C108.111 16.702 106.905 16.198 105.465 16.198C104.025 16.198 102.801 16.702 101.793 17.71C100.785 18.682 100.281 19.906 100.281 21.382C100.281 22.822 100.785 24.046 101.793 25.054C102.801 26.062 104.025 26.566 105.465 26.566ZM125.769 52.486C124.365 52.486 123.069 52.144 121.881 51.46C120.693 50.776 119.739 49.84 119.019 48.652C118.335 47.464 117.993 46.168 117.993 44.764C117.993 43.396 118.335 42.136 119.019 40.984C119.739 39.796 120.693 38.86 121.881 38.176C123.069 37.492 124.365 37.15 125.769 37.15C127.137 37.15 128.415 37.492 129.603 38.176C130.791 38.86 131.727 39.796 132.411 40.984C133.095 42.136 133.437 43.396 133.437 44.764C133.437 46.168 133.095 47.464 132.411 48.652C131.727 49.84 130.791 50.776 129.603 51.46C128.451 52.144 127.173 52.486 125.769 52.486ZM125.769 50.002C127.209 50.002 128.415 49.498 129.387 48.49C130.395 47.482 130.899 46.24 130.899 44.764C130.899 43.324 130.395 42.118 129.387 41.146C128.379 40.138 127.173 39.634 125.769 39.634C124.293 39.634 123.051 40.138 122.043 41.146C121.035 42.118 120.531 43.324 120.531 44.764C120.531 46.24 121.035 47.482 122.043 48.49C123.051 49.498 124.293 50.002 125.769 50.002Z" fill="#FF4D01"/>
<path d="M8.11389 81.162C7.27389 81.162 6.53589 81 5.89989 80.676C5.26389 80.34 4.76589 79.872 4.40589 79.272C4.05789 78.66 3.88389 77.958 3.88389 77.166V72.216C3.88389 71.436 4.05789 70.746 4.40589 70.146C4.76589 69.546 5.26389 69.084 5.89989 68.76C6.53589 68.424 7.27389 68.256 8.11389 68.256C8.95389 68.256 9.69189 68.418 10.3279 68.742C10.9639 69.066 11.4559 69.522 11.8039 70.11C12.1639 70.698 12.3439 71.376 12.3439 72.144C12.3439 72.204 12.3259 72.252 12.2899 72.288C12.2539 72.324 12.2119 72.342 12.1639 72.342L11.2459 72.396C11.1259 72.396 11.0659 72.342 11.0659 72.234V72.18C11.0659 71.328 10.7959 70.65 10.2559 70.146C9.71589 69.63 9.00189 69.372 8.11389 69.372C7.22589 69.372 6.51189 69.63 5.97189 70.146C5.43189 70.662 5.16189 71.34 5.16189 72.18V77.22C5.16189 78.06 5.43189 78.738 5.97189 79.254C6.51189 79.77 7.22589 80.028 8.11389 80.028C9.00189 80.028 9.71589 79.776 10.2559 79.272C10.7959 78.756 11.0659 78.072 11.0659 77.22V77.184C11.0659 77.076 11.1259 77.022 11.2459 77.022L12.1639 77.076C12.2839 77.076 12.3439 77.13 12.3439 77.238C12.3439 78.018 12.1639 78.708 11.8039 79.308C11.4559 79.896 10.9639 80.352 10.3279 80.676C9.69189 81 8.95389 81.162 8.11389 81.162ZM15.1415 81C15.0215 81 14.9615 80.94 14.9615 80.82V68.58C14.9615 68.46 15.0215 68.4 15.1415 68.4H16.0595C16.1795 68.4 16.2395 68.46 16.2395 68.58V80.82C16.2395 80.94 16.1795 81 16.0595 81H15.1415ZM19.9739 70.236C19.6859 70.236 19.4459 70.14 19.2539 69.948C19.0619 69.756 18.9659 69.516 18.9659 69.228C18.9659 68.928 19.0619 68.688 19.2539 68.508C19.4459 68.316 19.6859 68.22 19.9739 68.22C20.2619 68.22 20.5019 68.316 20.6939 68.508C20.8859 68.688 20.9819 68.928 20.9819 69.228C20.9819 69.516 20.8859 69.756 20.6939 69.948C20.5019 70.14 20.2619 70.236 19.9739 70.236ZM19.4699 80.982C19.3499 80.982 19.2899 80.922 19.2899 80.802V72.054C19.2899 71.934 19.3499 71.874 19.4699 71.874H20.3879C20.5079 71.874 20.5679 71.934 20.5679 72.054V80.802C20.5679 80.922 20.5079 80.982 20.3879 80.982H19.4699ZM30.6818 74.916C30.7298 75.252 30.7538 75.672 30.7538 76.176V76.752C30.7538 76.872 30.6938 76.932 30.5738 76.932H24.7598C24.7118 76.932 24.6878 76.956 24.6878 77.004C24.7118 77.664 24.7478 78.09 24.7958 78.282C24.9278 78.822 25.2098 79.248 25.6418 79.56C26.0738 79.872 26.6258 80.028 27.2978 80.028C27.8018 80.028 28.2458 79.914 28.6298 79.686C29.0138 79.458 29.3138 79.134 29.5298 78.714C29.6018 78.606 29.6858 78.582 29.7818 78.642L30.4838 79.056C30.5798 79.116 30.6038 79.2 30.5558 79.308C30.2558 79.884 29.8058 80.34 29.2058 80.676C28.6058 81 27.9158 81.162 27.1358 81.162C26.2838 81.15 25.5698 80.946 24.9938 80.55C24.4178 80.154 24.0038 79.602 23.7518 78.894C23.5358 78.318 23.4278 77.49 23.4278 76.41C23.4278 75.906 23.4338 75.498 23.4458 75.186C23.4698 74.862 23.5178 74.574 23.5898 74.322C23.7938 73.542 24.2018 72.918 24.8138 72.45C25.4378 71.982 26.1878 71.748 27.0638 71.748C28.1558 71.748 28.9958 72.024 29.5838 72.576C30.1718 73.128 30.5378 73.908 30.6818 74.916ZM27.0638 72.864C26.4758 72.864 25.9838 73.02 25.5878 73.332C25.2038 73.632 24.9518 74.04 24.8318 74.556C24.7598 74.808 24.7118 75.216 24.6878 75.78C24.6878 75.828 24.7118 75.852 24.7598 75.852H29.4218C29.4698 75.852 29.4938 75.828 29.4938 75.78C29.4698 75.24 29.4338 74.856 29.3858 74.628C29.2538 74.088 28.9838 73.662 28.5758 73.35C28.1798 73.026 27.6758 72.864 27.0638 72.864ZM37.0755 71.766C38.0355 71.766 38.7975 72.048 39.3615 72.612C39.9375 73.176 40.2255 73.932 40.2255 74.88V80.82C40.2255 80.94 40.1655 81 40.0455 81H39.1275C39.0075 81 38.9475 80.94 38.9475 80.82V75.132C38.9475 74.472 38.7435 73.932 38.3355 73.512C37.9395 73.092 37.4235 72.882 36.7875 72.882C36.1275 72.882 35.5935 73.086 35.1855 73.494C34.7775 73.902 34.5735 74.436 34.5735 75.096V80.82C34.5735 80.94 34.5135 81 34.3935 81H33.4755C33.3555 81 33.2955 80.94 33.2955 80.82V72.072C33.2955 71.952 33.3555 71.892 33.4755 71.892H34.3935C34.5135 71.892 34.5735 71.952 34.5735 72.072V72.846C34.5735 72.87 34.5795 72.888 34.5915 72.9C34.6155 72.912 34.6335 72.906 34.6455 72.882C35.1735 72.138 35.9835 71.766 37.0755 71.766ZM47.0846 72.774C47.0846 72.894 47.0246 72.954 46.9046 72.954H44.8706C44.8226 72.954 44.7986 72.978 44.7986 73.026V78.336C44.7986 78.912 44.9246 79.32 45.1766 79.56C45.4406 79.788 45.8486 79.902 46.4006 79.902H46.8506C46.9706 79.902 47.0306 79.962 47.0306 80.082V80.82C47.0306 80.94 46.9706 81 46.8506 81C46.7066 81.012 46.4846 81.018 46.1846 81.018C45.3206 81.018 44.6666 80.856 44.2226 80.532C43.7786 80.208 43.5566 79.608 43.5566 78.732V73.026C43.5566 72.978 43.5326 72.954 43.4846 72.954H42.3866C42.2666 72.954 42.2066 72.894 42.2066 72.774V72.072C42.2066 71.952 42.2666 71.892 42.3866 71.892H43.4846C43.5326 71.892 43.5566 71.868 43.5566 71.82V69.732C43.5566 69.612 43.6166 69.552 43.7366 69.552H44.6186C44.7386 69.552 44.7986 69.612 44.7986 69.732V71.82C44.7986 71.868 44.8226 71.892 44.8706 71.892H46.9046C47.0246 71.892 47.0846 71.952 47.0846 72.072V72.774ZM57.0468 81.144C55.6908 81.144 54.6168 80.838 53.8248 80.226C53.0448 79.614 52.6548 78.798 52.6548 77.778V77.22C52.6548 77.1 52.7148 77.04 52.8348 77.04H53.7168C53.8368 77.04 53.8968 77.1 53.8968 77.22V77.706C53.8968 78.402 54.1848 78.966 54.7608 79.398C55.3368 79.818 56.1348 80.028 57.1548 80.028C58.0788 80.028 58.7808 79.836 59.2608 79.452C59.7408 79.056 59.9808 78.534 59.9808 77.886C59.9808 77.466 59.8668 77.106 59.6388 76.806C59.4228 76.506 59.0808 76.224 58.6128 75.96C58.1568 75.696 57.5088 75.39 56.6688 75.042C55.7688 74.682 55.0668 74.37 54.5628 74.106C54.0708 73.83 53.6688 73.482 53.3568 73.062C53.0568 72.63 52.9067 72.09 52.9067 71.442C52.9067 70.434 53.2548 69.654 53.9508 69.102C54.6588 68.538 55.6248 68.256 56.8488 68.256C58.1808 68.256 59.2308 68.568 59.9988 69.192C60.7668 69.816 61.1508 70.644 61.1508 71.676V72.072C61.1508 72.192 61.0908 72.252 60.9707 72.252H60.0708C59.9508 72.252 59.8908 72.192 59.8908 72.072V71.748C59.8908 71.052 59.6148 70.482 59.0628 70.038C58.5228 69.594 57.7668 69.372 56.7948 69.372C55.9428 69.372 55.2888 69.546 54.8328 69.894C54.3768 70.242 54.1488 70.746 54.1488 71.406C54.1488 71.838 54.2568 72.198 54.4728 72.486C54.7008 72.762 55.0188 73.008 55.4268 73.224C55.8468 73.428 56.4888 73.698 57.3528 74.034C58.2288 74.394 58.9308 74.73 59.4588 75.042C59.9988 75.354 60.4308 75.738 60.7548 76.194C61.0908 76.638 61.2588 77.184 61.2588 77.832C61.2588 78.84 60.8868 79.644 60.1428 80.244C59.3988 80.844 58.3668 81.144 57.0468 81.144ZM66.7853 71.748C67.8653 71.748 68.6993 72.024 69.2873 72.576C69.8753 73.128 70.1693 73.86 70.1693 74.772V80.82C70.1693 80.94 70.1093 81 69.9893 81H69.0713C68.9513 81 68.8913 80.94 68.8913 80.82V80.082C68.8913 80.058 68.8793 80.04 68.8553 80.028C68.8433 80.016 68.8253 80.022 68.8013 80.046C68.5013 80.406 68.1113 80.682 67.6313 80.874C67.1513 81.054 66.6173 81.144 66.0293 81.144C65.1773 81.144 64.4633 80.928 63.8873 80.496C63.3113 80.064 63.0233 79.404 63.0233 78.516C63.0233 77.616 63.3473 76.908 63.9953 76.392C64.6553 75.864 65.5673 75.6 66.7313 75.6H68.8193C68.8673 75.6 68.8913 75.576 68.8913 75.528V74.844C68.8913 74.232 68.7173 73.752 68.3693 73.404C68.0333 73.044 67.5053 72.864 66.7853 72.864C66.2093 72.864 65.7413 72.978 65.3813 73.206C65.0213 73.422 64.7993 73.728 64.7153 74.124C64.6793 74.244 64.6073 74.298 64.4993 74.286L63.5273 74.16C63.3953 74.136 63.3413 74.088 63.3653 74.016C63.4613 73.344 63.8213 72.798 64.4453 72.378C65.0693 71.958 65.8493 71.748 66.7853 71.748ZM66.2813 80.046C66.9893 80.046 67.6013 79.872 68.1173 79.524C68.6333 79.164 68.8913 78.684 68.8913 78.084V76.68C68.8913 76.632 68.8673 76.608 68.8193 76.608H66.9293C66.1373 76.608 65.5013 76.77 65.0213 77.094C64.5413 77.418 64.3013 77.868 64.3013 78.444C64.3013 78.972 64.4813 79.374 64.8413 79.65C65.2133 79.914 65.6933 80.046 66.2813 80.046ZM76.8444 72.774C76.8444 72.894 76.7844 72.954 76.6644 72.954H74.6304C74.5824 72.954 74.5584 72.978 74.5584 73.026V78.336C74.5584 78.912 74.6844 79.32 74.9364 79.56C75.2004 79.788 75.6084 79.902 76.1604 79.902H76.6104C76.7304 79.902 76.7904 79.962 76.7904 80.082V80.82C76.7904 80.94 76.7304 81 76.6104 81C76.4664 81.012 76.2444 81.018 75.9444 81.018C75.0804 81.018 74.4264 80.856 73.9824 80.532C73.5384 80.208 73.3164 79.608 73.3164 78.732V73.026C73.3164 72.978 73.2924 72.954 73.2444 72.954H72.1464C72.0264 72.954 71.9664 72.894 71.9664 72.774V72.072C71.9664 71.952 72.0264 71.892 72.1464 71.892H73.2444C73.2924 71.892 73.3164 71.868 73.3164 71.82V69.732C73.3164 69.612 73.3764 69.552 73.4964 69.552H74.3784C74.4984 69.552 74.5584 69.612 74.5584 69.732V71.82C74.5584 71.868 74.5824 71.892 74.6304 71.892H76.6644C76.7844 71.892 76.8444 71.952 76.8444 72.072V72.774ZM80.179 70.236C79.891 70.236 79.651 70.14 79.459 69.948C79.267 69.756 79.171 69.516 79.171 69.228C79.171 68.928 79.267 68.688 79.459 68.508C79.651 68.316 79.891 68.22 80.179 68.22C80.467 68.22 80.707 68.316 80.899 68.508C81.091 68.688 81.187 68.928 81.187 69.228C81.187 69.516 81.091 69.756 80.899 69.948C80.707 70.14 80.467 70.236 80.179 70.236ZM79.675 80.982C79.555 80.982 79.495 80.922 79.495 80.802V72.054C79.495 71.934 79.555 71.874 79.675 71.874H80.593C80.713 71.874 80.773 71.934 80.773 72.054V80.802C80.773 80.922 80.713 80.982 80.593 80.982H79.675ZM86.8909 81.09C86.2189 81.09 85.6189 80.982 85.0909 80.766C84.5749 80.55 84.1729 80.262 83.8849 79.902C83.6089 79.542 83.4709 79.14 83.4709 78.696V78.48C83.4709 78.36 83.5309 78.3 83.6509 78.3H84.5149C84.6349 78.3 84.6949 78.36 84.6949 78.48V78.624C84.6949 79.02 84.8989 79.368 85.3069 79.668C85.7269 79.956 86.2489 80.1 86.8729 80.1C87.4969 80.1 88.0009 79.962 88.3849 79.686C88.7689 79.398 88.9609 79.038 88.9609 78.606C88.9609 78.306 88.8589 78.06 88.6549 77.868C88.4629 77.676 88.2289 77.526 87.9529 77.418C87.6889 77.31 87.2749 77.172 86.7109 77.004C86.0389 76.812 85.4869 76.62 85.0549 76.428C84.6229 76.236 84.2569 75.972 83.9569 75.636C83.6689 75.288 83.5249 74.85 83.5249 74.322C83.5249 73.554 83.8249 72.942 84.4249 72.486C85.0249 72.03 85.8169 71.802 86.8009 71.802C87.4609 71.802 88.0429 71.91 88.5469 72.126C89.0629 72.342 89.4589 72.642 89.7349 73.026C90.0109 73.398 90.1489 73.818 90.1489 74.286V74.34C90.1489 74.46 90.0889 74.52 89.9689 74.52H89.1229C89.0029 74.52 88.9429 74.46 88.9429 74.34V74.286C88.9429 73.878 88.7449 73.536 88.3489 73.26C87.9649 72.984 87.4429 72.846 86.7829 72.846C86.1709 72.846 85.6789 72.972 85.3069 73.224C84.9349 73.464 84.7489 73.8 84.7489 74.232C84.7489 74.64 84.9289 74.952 85.2889 75.168C85.6489 75.384 86.2069 75.6 86.9629 75.816C87.6589 76.02 88.2229 76.212 88.6549 76.392C89.0869 76.572 89.4589 76.836 89.7709 77.184C90.0829 77.52 90.2389 77.964 90.2389 78.516C90.2389 79.296 89.9329 79.92 89.3209 80.388C88.7089 80.856 87.8989 81.09 86.8909 81.09ZM96.1513 69.516C95.4913 69.516 95.0413 69.666 94.8013 69.966C94.5613 70.254 94.4413 70.752 94.4413 71.46V71.82C94.4413 71.868 94.4653 71.892 94.5133 71.892H96.5293C96.6493 71.892 96.7093 71.952 96.7093 72.072V72.882C96.7093 73.002 96.6493 73.062 96.5293 73.062H94.5133C94.4653 73.062 94.4413 73.086 94.4413 73.134V80.82C94.4413 80.94 94.3813 81 94.2613 81H93.3613C93.2413 81 93.1813 80.94 93.1813 80.82V73.134C93.1813 73.086 93.1573 73.062 93.1093 73.062H91.9033C91.7833 73.062 91.7233 73.002 91.7233 72.882V72.072C91.7233 71.952 91.7833 71.892 91.9033 71.892H93.1093C93.1573 71.892 93.1813 71.868 93.1813 71.82V71.388C93.1813 70.644 93.2653 70.062 93.4333 69.642C93.6013 69.21 93.8893 68.898 94.2973 68.706C94.7173 68.502 95.2993 68.4 96.0433 68.4H96.5653C96.6853 68.4 96.7453 68.46 96.7453 68.58V69.336C96.7453 69.456 96.6853 69.516 96.5653 69.516H96.1513ZM101.801 71.748C102.881 71.748 103.715 72.024 104.303 72.576C104.891 73.128 105.185 73.86 105.185 74.772V80.82C105.185 80.94 105.125 81 105.005 81H104.087C103.967 81 103.907 80.94 103.907 80.82V80.082C103.907 80.058 103.895 80.04 103.871 80.028C103.859 80.016 103.841 80.022 103.817 80.046C103.517 80.406 103.127 80.682 102.647 80.874C102.167 81.054 101.633 81.144 101.045 81.144C100.193 81.144 99.4789 80.928 98.9029 80.496C98.3269 80.064 98.0389 79.404 98.0389 78.516C98.0389 77.616 98.3629 76.908 99.0109 76.392C99.6709 75.864 100.583 75.6 101.747 75.6H103.835C103.883 75.6 103.907 75.576 103.907 75.528V74.844C103.907 74.232 103.733 73.752 103.385 73.404C103.049 73.044 102.521 72.864 101.801 72.864C101.225 72.864 100.757 72.978 100.397 73.206C100.037 73.422 99.8149 73.728 99.7309 74.124C99.6949 74.244 99.6229 74.298 99.5149 74.286L98.5429 74.16C98.4109 74.136 98.3569 74.088 98.3809 74.016C98.4769 73.344 98.8369 72.798 99.4609 72.378C100.085 71.958 100.865 71.748 101.801 71.748ZM101.297 80.046C102.005 80.046 102.617 79.872 103.133 79.524C103.649 79.164 103.907 78.684 103.907 78.084V76.68C103.907 76.632 103.883 76.608 103.835 76.608H101.945C101.153 76.608 100.517 76.77 100.037 77.094C99.5569 77.418 99.3169 77.868 99.3169 78.444C99.3169 78.972 99.4969 79.374 99.8569 79.65C100.229 79.914 100.709 80.046 101.297 80.046ZM111.282 81.144C110.418 81.144 109.674 80.922 109.05 80.478C108.438 80.022 108.018 79.41 107.79 78.642C107.634 78.114 107.556 77.37 107.556 76.41C107.556 75.546 107.634 74.814 107.79 74.214C108.006 73.47 108.426 72.876 109.05 72.432C109.674 71.976 110.418 71.748 111.282 71.748C112.158 71.748 112.914 71.97 113.55 72.414C114.198 72.858 114.618 73.41 114.81 74.07C114.87 74.286 114.906 74.466 114.918 74.61V74.646C114.918 74.73 114.864 74.784 114.756 74.808L113.856 74.934H113.82C113.736 74.934 113.682 74.88 113.658 74.772L113.604 74.502C113.496 74.046 113.232 73.662 112.812 73.35C112.392 73.026 111.882 72.864 111.282 72.864C110.682 72.864 110.178 73.026 109.77 73.35C109.374 73.662 109.116 74.082 108.996 74.61C108.888 75.066 108.834 75.672 108.834 76.428C108.834 77.22 108.888 77.832 108.996 78.264C109.116 78.804 109.374 79.236 109.77 79.56C110.178 79.872 110.682 80.028 111.282 80.028C111.87 80.028 112.374 79.878 112.794 79.578C113.226 79.266 113.496 78.87 113.604 78.39V78.318L113.622 78.246C113.634 78.126 113.706 78.078 113.838 78.102L114.72 78.246C114.84 78.27 114.894 78.336 114.882 78.444L114.81 78.804C114.63 79.5 114.216 80.064 113.568 80.496C112.92 80.928 112.158 81.144 111.282 81.144ZM121.282 72.774C121.282 72.894 121.222 72.954 121.102 72.954H119.068C119.02 72.954 118.996 72.978 118.996 73.026V78.336C118.996 78.912 119.122 79.32 119.374 79.56C119.638 79.788 120.046 79.902 120.598 79.902H121.048C121.168 79.902 121.228 79.962 121.228 80.082V80.82C121.228 80.94 121.168 81 121.048 81C120.904 81.012 120.682 81.018 120.382 81.018C119.518 81.018 118.864 80.856 118.42 80.532C117.976 80.208 117.754 79.608 117.754 78.732V73.026C117.754 72.978 117.73 72.954 117.682 72.954H116.584C116.464 72.954 116.404 72.894 116.404 72.774V72.072C116.404 71.952 116.464 71.892 116.584 71.892H117.682C117.73 71.892 117.754 71.868 117.754 71.82V69.732C117.754 69.612 117.814 69.552 117.934 69.552H118.816C118.936 69.552 118.996 69.612 118.996 69.732V71.82C118.996 71.868 119.02 71.892 119.068 71.892H121.102C121.222 71.892 121.282 71.952 121.282 72.072V72.774ZM124.617 70.236C124.329 70.236 124.089 70.14 123.897 69.948C123.705 69.756 123.609 69.516 123.609 69.228C123.609 68.928 123.705 68.688 123.897 68.508C124.089 68.316 124.329 68.22 124.617 68.22C124.905 68.22 125.145 68.316 125.337 68.508C125.529 68.688 125.625 68.928 125.625 69.228C125.625 69.516 125.529 69.756 125.337 69.948C125.145 70.14 124.905 70.236 124.617 70.236ZM124.113 80.982C123.993 80.982 123.933 80.922 123.933 80.802V72.054C123.933 71.934 123.993 71.874 124.113 71.874H125.031C125.151 71.874 125.211 71.934 125.211 72.054V80.802C125.211 80.922 125.151 80.982 125.031 80.982H124.113ZM131.814 81.144C130.95 81.144 130.206 80.922 129.582 80.478C128.958 80.034 128.526 79.422 128.286 78.642C128.118 78.09 128.034 77.352 128.034 76.428C128.034 75.504 128.118 74.772 128.286 74.232C128.514 73.464 128.94 72.858 129.564 72.414C130.188 71.97 130.944 71.748 131.832 71.748C132.684 71.748 133.416 71.97 134.028 72.414C134.652 72.858 135.078 73.458 135.306 74.214C135.474 74.73 135.558 75.468 135.558 76.428C135.558 77.4 135.474 78.138 135.306 78.642C135.078 79.422 134.652 80.034 134.028 80.478C133.416 80.922 132.678 81.144 131.814 81.144ZM131.814 80.028C132.39 80.028 132.882 79.872 133.29 79.56C133.698 79.236 133.974 78.804 134.118 78.264C134.226 77.832 134.28 77.226 134.28 76.446C134.28 75.654 134.232 75.048 134.136 74.628C133.992 74.088 133.71 73.662 133.29 73.35C132.882 73.026 132.384 72.864 131.796 72.864C131.208 72.864 130.71 73.026 130.302 73.35C129.894 73.662 129.618 74.088 129.474 74.628C129.378 75.048 129.33 75.654 129.33 76.446C129.33 77.238 129.378 77.844 129.474 78.264C129.606 78.804 129.876 79.236 130.284 79.56C130.704 79.872 131.214 80.028 131.814 80.028ZM141.929 71.766C142.889 71.766 143.651 72.048 144.215 72.612C144.791 73.176 145.079 73.932 145.079 74.88V80.82C145.079 80.94 145.019 81 144.899 81H143.981C143.861 81 143.801 80.94 143.801 80.82V75.132C143.801 74.472 143.597 73.932 143.189 73.512C142.793 73.092 142.277 72.882 141.641 72.882C140.981 72.882 140.447 73.086 140.039 73.494C139.631 73.902 139.427 74.436 139.427 75.096V80.82C139.427 80.94 139.367 81 139.247 81H138.329C138.209 81 138.149 80.94 138.149 80.82V72.072C138.149 71.952 138.209 71.892 138.329 71.892H139.247C139.367 71.892 139.427 71.952 139.427 72.072V72.846C139.427 72.87 139.433 72.888 139.445 72.9C139.469 72.912 139.487 72.906 139.499 72.882C140.027 72.138 140.837 71.766 141.929 71.766Z" fill="#989899"/>
</svg>
