<svg width="110" height="107" viewBox="0 0 110 107" fill="none" xmlns="http://www.w3.org/2000/svg">
<path d="M14.5733 19.816C14.8613 19.672 15.1733 19.6 15.5093 19.6H19.3973C19.8773 19.6 20.1173 19.84 20.1173 20.32V69.28C20.1173 69.76 19.8773 70 19.3973 70H15.7253C15.2453 70 15.0053 69.76 15.0053 69.28V25.432C15.0053 25.336 14.9573 25.264 14.8613 25.216C14.8133 25.168 14.7413 25.168 14.6453 25.216L7.01328 28.312L6.72528 28.384C6.43728 28.384 6.24528 28.192 6.14928 27.808L5.78928 25.072V24.928C5.78928 24.688 5.95728 24.448 6.29328 24.208L14.5733 19.816ZM37.7292 65.176C37.5852 65.416 37.6332 65.536 37.8732 65.536H60.4812C60.9612 65.536 61.2012 65.776 61.2012 66.256V69.28C61.2012 69.76 60.9612 70 60.4812 70H31.7532C31.2732 70 31.0332 69.76 31.0332 69.28V66.256C31.0332 65.92 31.1532 65.632 31.3932 65.392C33.0252 63.472 36.6972 58.96 42.4092 51.856L47.7372 45.232C52.2492 39.52 54.5052 35.08 54.5052 31.912C54.5052 29.368 53.6412 27.328 51.9132 25.792C50.1852 24.256 47.9292 23.488 45.1452 23.488C42.4092 23.488 40.2012 24.28 38.5212 25.864C36.8412 27.4 36.0252 29.44 36.0732 31.984V34.216C36.0732 34.696 35.8332 34.936 35.3532 34.936H31.6092C31.1292 34.936 30.8892 34.696 30.8892 34.216V31.336C30.9852 27.64 32.3532 24.664 34.9932 22.408C37.6812 20.152 41.0652 19.024 45.1452 19.024C48.0252 19.024 50.5692 19.576 52.7772 20.68C54.9852 21.784 56.6892 23.32 57.8892 25.288C59.0892 27.208 59.6892 29.392 59.6892 31.84C59.6892 35.92 57.4332 40.84 52.9212 46.6C50.5692 49.624 46.0332 55.192 39.3132 63.304L37.7292 65.176Z" fill="#191919"/>
<path d="M86.1502 69.928C85.6702 69.928 85.4302 69.688 85.4302 69.208V47.896C85.4302 47.704 85.4062 47.584 85.3582 47.536L70.3822 20.464C70.2862 20.272 70.2382 20.128 70.2382 20.032C70.2382 19.744 70.4542 19.6 70.8862 19.6H74.7742C75.2062 19.6 75.4942 19.768 75.6382 20.104L87.7342 42.064C87.7822 42.112 87.8542 42.136 87.9502 42.136C88.0462 42.136 88.1182 42.112 88.1662 42.064L100.334 20.104C100.526 19.768 100.814 19.6 101.198 19.6H105.086C105.374 19.6 105.566 19.696 105.662 19.888C105.758 20.032 105.734 20.224 105.59 20.464L90.6142 47.536C90.5662 47.584 90.5422 47.704 90.5422 47.896V69.208C90.5422 69.688 90.3022 69.928 89.8222 69.928H86.1502Z" fill="#FF4D01"/>
<path d="M21.2952 91.336C21.2952 91.456 21.2352 91.516 21.1152 91.516H14.4912C14.4432 91.516 14.4192 91.54 14.4192 91.588V96.034C14.4192 96.082 14.4432 96.106 14.4912 96.106H19.1352C19.2552 96.106 19.3152 96.166 19.3152 96.286V97.042C19.3152 97.162 19.2552 97.222 19.1352 97.222H14.4912C14.4432 97.222 14.4192 97.246 14.4192 97.294V101.812C14.4192 101.86 14.4432 101.884 14.4912 101.884H21.1152C21.2352 101.884 21.2952 101.944 21.2952 102.064V102.82C21.2952 102.94 21.2352 103 21.1152 103H13.3212C13.2012 103 13.1412 102.94 13.1412 102.82V90.58C13.1412 90.46 13.2012 90.4 13.3212 90.4H21.1152C21.2352 90.4 21.2952 90.46 21.2952 90.58V91.336ZM23.0137 103C22.9417 103 22.8877 102.976 22.8517 102.928C22.8277 102.88 22.8397 102.832 22.8877 102.784L25.8937 98.5C25.9177 98.464 25.9177 98.428 25.8937 98.392L22.8877 94.108C22.8637 94.084 22.8517 94.054 22.8517 94.018C22.8517 93.934 22.9057 93.892 23.0137 93.892H23.9857C24.0817 93.892 24.1537 93.928 24.2017 94L26.5597 97.402C26.5717 97.414 26.5897 97.42 26.6137 97.42C26.6377 97.42 26.6557 97.414 26.6677 97.402L29.0077 94C29.0557 93.928 29.1277 93.892 29.2237 93.892H30.2857C30.3577 93.892 30.4057 93.916 30.4297 93.964C30.4537 94 30.4417 94.048 30.3937 94.108L27.3877 98.392C27.3757 98.428 27.3757 98.464 27.3877 98.5L30.3937 102.784C30.4177 102.808 30.4297 102.844 30.4297 102.892C30.4297 102.916 30.4177 102.94 30.3937 102.964C30.3697 102.988 30.3337 103 30.2857 103H29.2957C29.1997 103 29.1277 102.964 29.0797 102.892L26.7397 99.49C26.7277 99.466 26.7097 99.454 26.6857 99.454C26.6617 99.454 26.6437 99.466 26.6317 99.49L24.2557 102.892C24.2077 102.964 24.1357 103 24.0397 103H23.0137ZM39.4398 96.16C39.6198 96.736 39.7098 97.498 39.7098 98.446C39.7098 99.406 39.6318 100.15 39.4758 100.678C39.2598 101.446 38.8638 102.052 38.2878 102.496C37.7238 102.928 37.0098 103.144 36.1458 103.144C35.6778 103.144 35.2458 103.054 34.8498 102.874C34.4538 102.682 34.1238 102.412 33.8598 102.064C33.8358 102.04 33.8118 102.034 33.7878 102.046C33.7758 102.046 33.7698 102.058 33.7698 102.082V106.312C33.7698 106.432 33.7098 106.492 33.5898 106.492H32.6718C32.5518 106.492 32.4918 106.432 32.4918 106.312V94.072C32.4918 93.952 32.5518 93.892 32.6718 93.892H33.5898C33.7098 93.892 33.7698 93.952 33.7698 94.072V94.828C33.7698 94.852 33.7758 94.87 33.7878 94.882C33.8118 94.882 33.8358 94.87 33.8598 94.846C34.1238 94.498 34.4478 94.228 34.8318 94.036C35.2278 93.844 35.6658 93.748 36.1458 93.748C36.9858 93.748 37.6878 93.964 38.2518 94.396C38.8278 94.828 39.2238 95.416 39.4398 96.16ZM38.0178 100.714C38.1498 100.45 38.2458 100.156 38.3058 99.832C38.3778 99.496 38.4138 99.034 38.4138 98.446C38.4138 97.882 38.3898 97.444 38.3418 97.132C38.2938 96.808 38.2098 96.52 38.0898 96.268C37.9458 95.836 37.6878 95.494 37.3158 95.242C36.9558 94.99 36.5238 94.864 36.0198 94.864C35.5398 94.864 35.1378 94.99 34.8138 95.242C34.4898 95.494 34.2498 95.83 34.0938 96.25C33.9858 96.49 33.9078 96.772 33.8598 97.096C33.8118 97.42 33.7878 97.87 33.7878 98.446C33.7878 99.022 33.8118 99.478 33.8598 99.814C33.9078 100.138 33.9918 100.426 34.1118 100.678C34.2558 101.086 34.4898 101.416 34.8138 101.668C35.1498 101.908 35.5458 102.028 36.0018 102.028C36.4818 102.028 36.8958 101.908 37.2438 101.668C37.6038 101.428 37.8618 101.11 38.0178 100.714ZM49.1584 96.916C49.2064 97.252 49.2304 97.672 49.2304 98.176V98.752C49.2304 98.872 49.1704 98.932 49.0504 98.932H43.2364C43.1884 98.932 43.1644 98.956 43.1644 99.004C43.1884 99.664 43.2244 100.09 43.2724 100.282C43.4044 100.822 43.6864 101.248 44.1184 101.56C44.5504 101.872 45.1024 102.028 45.7744 102.028C46.2784 102.028 46.7224 101.914 47.1064 101.686C47.4904 101.458 47.7904 101.134 48.0064 100.714C48.0784 100.606 48.1624 100.582 48.2584 100.642L48.9604 101.056C49.0564 101.116 49.0804 101.2 49.0324 101.308C48.7324 101.884 48.2824 102.34 47.6824 102.676C47.0824 103 46.3924 103.162 45.6124 103.162C44.7604 103.15 44.0464 102.946 43.4704 102.55C42.8944 102.154 42.4804 101.602 42.2284 100.894C42.0124 100.318 41.9044 99.49 41.9044 98.41C41.9044 97.906 41.9104 97.498 41.9224 97.186C41.9464 96.862 41.9944 96.574 42.0664 96.322C42.2704 95.542 42.6784 94.918 43.2904 94.45C43.9144 93.982 44.6644 93.748 45.5404 93.748C46.6324 93.748 47.4724 94.024 48.0604 94.576C48.6484 95.128 49.0144 95.908 49.1584 96.916ZM45.5404 94.864C44.9524 94.864 44.4604 95.02 44.0644 95.332C43.6804 95.632 43.4284 96.04 43.3084 96.556C43.2364 96.808 43.1884 97.216 43.1644 97.78C43.1644 97.828 43.1884 97.852 43.2364 97.852H47.8984C47.9464 97.852 47.9704 97.828 47.9704 97.78C47.9464 97.24 47.9104 96.856 47.8624 96.628C47.7304 96.088 47.4604 95.662 47.0524 95.35C46.6564 95.026 46.1524 94.864 45.5404 94.864ZM55.444 93.802C55.84 93.802 56.182 93.88 56.47 94.036C56.566 94.084 56.602 94.162 56.578 94.27L56.38 95.152C56.344 95.272 56.266 95.308 56.146 95.26C55.942 95.176 55.708 95.134 55.444 95.134L55.21 95.152C54.586 95.176 54.07 95.41 53.662 95.854C53.254 96.286 53.05 96.838 53.05 97.51V102.82C53.05 102.94 52.99 103 52.87 103H51.952C51.832 103 51.772 102.94 51.772 102.82V94.072C51.772 93.952 51.832 93.892 51.952 93.892H52.87C52.99 93.892 53.05 93.952 53.05 94.072V95.17C53.05 95.206 53.056 95.23 53.068 95.242C53.092 95.242 53.11 95.23 53.122 95.206C53.374 94.762 53.692 94.42 54.076 94.18C54.472 93.928 54.928 93.802 55.444 93.802ZM59.1927 92.236C58.9047 92.236 58.6647 92.14 58.4727 91.948C58.2807 91.756 58.1847 91.516 58.1847 91.228C58.1847 90.928 58.2807 90.688 58.4727 90.508C58.6647 90.316 58.9047 90.22 59.1927 90.22C59.4807 90.22 59.7207 90.316 59.9127 90.508C60.1047 90.688 60.2007 90.928 60.2007 91.228C60.2007 91.516 60.1047 91.756 59.9127 91.948C59.7207 92.14 59.4807 92.236 59.1927 92.236ZM58.6887 102.982C58.5687 102.982 58.5087 102.922 58.5087 102.802V94.054C58.5087 93.934 58.5687 93.874 58.6887 93.874H59.6067C59.7267 93.874 59.7867 93.934 59.7867 94.054V102.802C59.7867 102.922 59.7267 102.982 59.6067 102.982H58.6887ZM69.9006 96.916C69.9486 97.252 69.9726 97.672 69.9726 98.176V98.752C69.9726 98.872 69.9126 98.932 69.7926 98.932H63.9786C63.9306 98.932 63.9066 98.956 63.9066 99.004C63.9306 99.664 63.9666 100.09 64.0146 100.282C64.1466 100.822 64.4286 101.248 64.8606 101.56C65.2926 101.872 65.8446 102.028 66.5166 102.028C67.0206 102.028 67.4646 101.914 67.8486 101.686C68.2326 101.458 68.5326 101.134 68.7486 100.714C68.8206 100.606 68.9046 100.582 69.0006 100.642L69.7026 101.056C69.7986 101.116 69.8226 101.2 69.7746 101.308C69.4746 101.884 69.0246 102.34 68.4246 102.676C67.8246 103 67.1346 103.162 66.3546 103.162C65.5026 103.15 64.7886 102.946 64.2126 102.55C63.6366 102.154 63.2226 101.602 62.9706 100.894C62.7546 100.318 62.6466 99.49 62.6466 98.41C62.6466 97.906 62.6526 97.498 62.6646 97.186C62.6886 96.862 62.7366 96.574 62.8086 96.322C63.0126 95.542 63.4206 94.918 64.0326 94.45C64.6566 93.982 65.4066 93.748 66.2826 93.748C67.3746 93.748 68.2146 94.024 68.8026 94.576C69.3906 95.128 69.7566 95.908 69.9006 96.916ZM66.2826 94.864C65.6946 94.864 65.2026 95.02 64.8066 95.332C64.4226 95.632 64.1706 96.04 64.0506 96.556C63.9786 96.808 63.9306 97.216 63.9066 97.78C63.9066 97.828 63.9306 97.852 63.9786 97.852H68.6406C68.6886 97.852 68.7126 97.828 68.7126 97.78C68.6886 97.24 68.6526 96.856 68.6046 96.628C68.4726 96.088 68.2026 95.662 67.7946 95.35C67.3986 95.026 66.8946 94.864 66.2826 94.864ZM76.2942 93.766C77.2542 93.766 78.0162 94.048 78.5802 94.612C79.1562 95.176 79.4442 95.932 79.4442 96.88V102.82C79.4442 102.94 79.3842 103 79.2642 103H78.3462C78.2262 103 78.1662 102.94 78.1662 102.82V97.132C78.1662 96.472 77.9622 95.932 77.5542 95.512C77.1582 95.092 76.6422 94.882 76.0062 94.882C75.3462 94.882 74.8122 95.086 74.4042 95.494C73.9962 95.902 73.7922 96.436 73.7922 97.096V102.82C73.7922 102.94 73.7322 103 73.6122 103H72.6942C72.5742 103 72.5142 102.94 72.5142 102.82V94.072C72.5142 93.952 72.5742 93.892 72.6942 93.892H73.6122C73.7322 93.892 73.7922 93.952 73.7922 94.072V94.846C73.7922 94.87 73.7982 94.888 73.8102 94.9C73.8342 94.912 73.8522 94.906 73.8642 94.882C74.3922 94.138 75.2022 93.766 76.2942 93.766ZM85.5323 103.144C84.6683 103.144 83.9243 102.922 83.3003 102.478C82.6883 102.022 82.2683 101.41 82.0403 100.642C81.8843 100.114 81.8063 99.37 81.8063 98.41C81.8063 97.546 81.8843 96.814 82.0403 96.214C82.2563 95.47 82.6763 94.876 83.3003 94.432C83.9243 93.976 84.6683 93.748 85.5323 93.748C86.4083 93.748 87.1643 93.97 87.8003 94.414C88.4483 94.858 88.8683 95.41 89.0603 96.07C89.1203 96.286 89.1563 96.466 89.1683 96.61V96.646C89.1683 96.73 89.1143 96.784 89.0063 96.808L88.1063 96.934H88.0703C87.9863 96.934 87.9323 96.88 87.9083 96.772L87.8543 96.502C87.7463 96.046 87.4823 95.662 87.0623 95.35C86.6423 95.026 86.1323 94.864 85.5323 94.864C84.9323 94.864 84.4283 95.026 84.0203 95.35C83.6243 95.662 83.3663 96.082 83.2463 96.61C83.1383 97.066 83.0843 97.672 83.0843 98.428C83.0843 99.22 83.1383 99.832 83.2463 100.264C83.3663 100.804 83.6243 101.236 84.0203 101.56C84.4283 101.872 84.9323 102.028 85.5323 102.028C86.1203 102.028 86.6243 101.878 87.0443 101.578C87.4763 101.266 87.7463 100.87 87.8543 100.39V100.318L87.8723 100.246C87.8843 100.126 87.9563 100.078 88.0883 100.102L88.9703 100.246C89.0903 100.27 89.1443 100.336 89.1323 100.444L89.0603 100.804C88.8803 101.5 88.4663 102.064 87.8183 102.496C87.1703 102.928 86.4083 103.144 85.5323 103.144ZM98.3771 96.916C98.4251 97.252 98.4491 97.672 98.4491 98.176V98.752C98.4491 98.872 98.3891 98.932 98.2691 98.932H92.4551C92.4071 98.932 92.3831 98.956 92.3831 99.004C92.4071 99.664 92.4431 100.09 92.4911 100.282C92.6231 100.822 92.9051 101.248 93.3371 101.56C93.7691 101.872 94.3211 102.028 94.9931 102.028C95.4971 102.028 95.9411 101.914 96.3251 101.686C96.7091 101.458 97.0091 101.134 97.2251 100.714C97.2971 100.606 97.3811 100.582 97.4771 100.642L98.1791 101.056C98.2751 101.116 98.2991 101.2 98.2511 101.308C97.9511 101.884 97.5011 102.34 96.9011 102.676C96.3011 103 95.6111 103.162 94.8311 103.162C93.9791 103.15 93.2651 102.946 92.6891 102.55C92.1131 102.154 91.6991 101.602 91.4471 100.894C91.2311 100.318 91.1231 99.49 91.1231 98.41C91.1231 97.906 91.1291 97.498 91.1411 97.186C91.1651 96.862 91.2131 96.574 91.2851 96.322C91.4891 95.542 91.8971 94.918 92.5091 94.45C93.1331 93.982 93.8831 93.748 94.7591 93.748C95.8511 93.748 96.6911 94.024 97.2791 94.576C97.8671 95.128 98.2331 95.908 98.3771 96.916ZM94.7591 94.864C94.1711 94.864 93.6791 95.02 93.2831 95.332C92.8991 95.632 92.6471 96.04 92.5271 96.556C92.4551 96.808 92.4071 97.216 92.3831 97.78C92.3831 97.828 92.4071 97.852 92.4551 97.852H97.1171C97.1651 97.852 97.1891 97.828 97.1891 97.78C97.1651 97.24 97.1291 96.856 97.0811 96.628C96.9491 96.088 96.6791 95.662 96.2711 95.35C95.8751 95.026 95.3711 94.864 94.7591 94.864Z" fill="#989899"/>
</svg>
