<svg width="159" height="85" viewBox="0 0 159 85" fill="none" xmlns="http://www.w3.org/2000/svg">
<path d="M45.854 33.424C46.214 33.424 46.394 33.604 46.394 33.964V36.232C46.394 36.592 46.214 36.772 45.854 36.772H36.89C36.746 36.772 36.674 36.844 36.674 36.988V45.736C36.674 46.096 36.494 46.276 36.134 46.276H33.866C33.506 46.276 33.326 46.096 33.326 45.736V36.988C33.326 36.844 33.254 36.772 33.11 36.772H24.146C23.786 36.772 23.606 36.592 23.606 36.232V33.964C23.606 33.604 23.786 33.424 24.146 33.424H33.11C33.254 33.424 33.326 33.352 33.326 33.208V24.028C33.326 23.668 33.506 23.488 33.866 23.488H36.134C36.494 23.488 36.674 23.668 36.674 24.028V33.208C36.674 33.352 36.746 33.424 36.89 33.424H45.854Z" fill="#FF4D01"/>
<path d="M72.6888 34.126C73.4088 35.89 73.7688 37.996 73.7688 40.444C73.7688 42.424 73.4988 44.17 72.9588 45.682C72.2388 47.842 71.0148 49.516 69.2868 50.704C67.5948 51.856 65.4888 52.432 62.9688 52.432C60.4488 52.432 58.2888 51.784 56.4888 50.488C54.6888 49.156 53.4468 47.374 52.7628 45.142C52.4388 44.134 52.2408 42.766 52.1688 41.038C52.1688 40.678 52.3488 40.498 52.7088 40.498H55.4628C55.8228 40.498 56.0028 40.678 56.0028 41.038C56.0748 42.082 56.2008 43.054 56.3808 43.954C56.7768 45.538 57.5328 46.798 58.6488 47.734C59.8008 48.634 61.2228 49.084 62.9148 49.084C66.1548 49.084 68.2608 47.644 69.2328 44.764C69.6648 43.576 69.8808 42.1 69.8808 40.336C69.8808 38.176 69.5928 36.412 69.0168 35.044C67.8648 32.452 65.8308 31.156 62.9148 31.156C62.3748 31.156 61.7088 31.354 60.9168 31.75C60.7728 31.822 60.6648 31.858 60.5928 31.858C60.4488 31.858 60.3228 31.768 60.2148 31.588L58.8108 29.698C58.6308 29.41 58.6488 29.158 58.8648 28.942L68.3688 17.818C68.4768 17.638 68.4408 17.548 68.2608 17.548H53.0327C52.6728 17.548 52.4928 17.368 52.4928 17.008V14.74C52.4928 14.38 52.6728 14.2 53.0327 14.2H73.0128C73.3728 14.2 73.5528 14.38 73.5528 14.74V17.386C73.5528 17.566 73.4628 17.782 73.2828 18.034L64.6428 28.402C64.5708 28.474 64.5528 28.546 64.5888 28.618C64.6248 28.654 64.6968 28.672 64.8048 28.672C68.6568 28.924 71.2848 30.742 72.6888 34.126ZM101.83 35.476C102.154 37.06 102.316 38.68 102.316 40.336C102.316 42.1 102.154 43.612 101.83 44.872C101.218 47.176 99.9938 49.012 98.1578 50.38C96.3218 51.712 94.1078 52.378 91.5158 52.378C88.9598 52.378 86.7818 51.73 84.9818 50.434C83.1818 49.138 81.9578 47.41 81.3098 45.25C81.0578 44.458 80.8958 43.666 80.8238 42.874V42.766C80.8238 42.478 80.9858 42.334 81.3098 42.334H84.1718C84.5318 42.334 84.7298 42.514 84.7658 42.874C84.7658 43.09 84.8378 43.45 84.9818 43.954C85.3418 45.502 86.0798 46.744 87.1958 47.68C88.3478 48.58 89.7698 49.03 91.4618 49.03C93.1898 49.03 94.6298 48.544 95.7818 47.572C96.9698 46.6 97.7438 45.268 98.1038 43.576C98.3198 42.748 98.4278 41.668 98.4278 40.336C98.4278 39.112 98.3378 37.942 98.1578 36.826C97.9058 35.17 97.1858 33.91 95.9978 33.046C94.8098 32.182 93.3338 31.75 91.5698 31.75C89.9858 31.75 88.5638 32.11 87.3038 32.83C86.0438 33.55 85.2338 34.504 84.8738 35.692C84.7658 36.016 84.5678 36.178 84.2798 36.178H81.3638C81.0038 36.178 80.8238 35.998 80.8238 35.638V14.74C80.8238 14.38 81.0038 14.2 81.3638 14.2H100.264C100.624 14.2 100.804 14.38 100.804 14.74V17.008C100.804 17.368 100.624 17.548 100.264 17.548H84.8738C84.7298 17.548 84.6578 17.62 84.6578 17.764L84.6038 30.832C84.6038 30.904 84.6218 30.958 84.6578 30.994C84.7298 31.03 84.8018 31.012 84.8738 30.94C85.7738 30.112 86.8358 29.482 88.0598 29.05C89.2838 28.582 90.5798 28.348 91.9478 28.348C94.5038 28.348 96.6638 28.978 98.4278 30.238C100.192 31.462 101.326 33.208 101.83 35.476ZM120.172 52.54C116.716 52.54 113.962 51.55 111.91 49.57C109.858 47.59 108.832 44.944 108.832 41.632V24.568C108.832 21.256 109.858 18.628 111.91 16.684C113.962 14.704 116.716 13.714 120.172 13.714C123.664 13.714 126.454 14.704 128.542 16.684C130.63 18.664 131.674 21.292 131.674 24.568V41.632C131.674 44.944 130.63 47.59 128.542 49.57C126.454 51.55 123.664 52.54 120.172 52.54ZM120.172 49.192C122.476 49.192 124.33 48.526 125.734 47.194C127.138 45.862 127.84 44.08 127.84 41.848V24.406C127.84 22.21 127.138 20.446 125.734 19.114C124.366 17.782 122.512 17.116 120.172 17.116C117.904 17.116 116.086 17.782 114.718 19.114C113.35 20.446 112.666 22.21 112.666 24.406V41.848C112.666 44.08 113.35 45.862 114.718 47.194C116.086 48.526 117.904 49.192 120.172 49.192Z" fill="#191919"/>
<path d="M7.53698 81.144C6.18098 81.144 5.10698 80.838 4.31498 80.226C3.53498 79.614 3.14498 78.798 3.14498 77.778V77.22C3.14498 77.1 3.20498 77.04 3.32498 77.04H4.20698C4.32698 77.04 4.38698 77.1 4.38698 77.22V77.706C4.38698 78.402 4.67498 78.966 5.25098 79.398C5.82698 79.818 6.62498 80.028 7.64498 80.028C8.56898 80.028 9.27098 79.836 9.75098 79.452C10.231 79.056 10.471 78.534 10.471 77.886C10.471 77.466 10.357 77.106 10.129 76.806C9.91298 76.506 9.57098 76.224 9.10298 75.96C8.64698 75.696 7.99898 75.39 7.15898 75.042C6.25898 74.682 5.55698 74.37 5.05298 74.106C4.56098 73.83 4.15898 73.482 3.84698 73.062C3.54698 72.63 3.39698 72.09 3.39698 71.442C3.39698 70.434 3.74498 69.654 4.44098 69.102C5.14898 68.538 6.11498 68.256 7.33898 68.256C8.67098 68.256 9.72098 68.568 10.489 69.192C11.257 69.816 11.641 70.644 11.641 71.676V72.072C11.641 72.192 11.581 72.252 11.461 72.252H10.561C10.441 72.252 10.381 72.192 10.381 72.072V71.748C10.381 71.052 10.105 70.482 9.55298 70.038C9.01298 69.594 8.25698 69.372 7.28498 69.372C6.43298 69.372 5.77898 69.546 5.32298 69.894C4.86698 70.242 4.63898 70.746 4.63898 71.406C4.63898 71.838 4.74698 72.198 4.96298 72.486C5.19098 72.762 5.50898 73.008 5.91698 73.224C6.33698 73.428 6.97898 73.698 7.84298 74.034C8.71898 74.394 9.42098 74.73 9.94898 75.042C10.489 75.354 10.921 75.738 11.245 76.194C11.581 76.638 11.749 77.184 11.749 77.832C11.749 78.84 11.377 79.644 10.633 80.244C9.88898 80.844 8.85698 81.144 7.53698 81.144ZM19.6687 72.072C19.6687 71.952 19.7287 71.892 19.8487 71.892H20.7667C20.8867 71.892 20.9467 71.952 20.9467 72.072V80.82C20.9467 80.94 20.8867 81 20.7667 81H19.8487C19.7287 81 19.6687 80.94 19.6687 80.82V80.046C19.6687 80.022 19.6567 80.004 19.6327 79.992C19.6087 79.98 19.5907 79.986 19.5787 80.01C19.0747 80.754 18.2767 81.126 17.1847 81.126C16.6087 81.126 16.0747 81.012 15.5827 80.784C15.1027 80.544 14.7187 80.202 14.4307 79.758C14.1547 79.314 14.0167 78.78 14.0167 78.156V72.072C14.0167 71.952 14.0767 71.892 14.1967 71.892H15.1147C15.2347 71.892 15.2947 71.952 15.2947 72.072V77.778C15.2947 78.462 15.4867 79.008 15.8707 79.416C16.2547 79.812 16.7767 80.01 17.4367 80.01C18.1207 80.01 18.6607 79.806 19.0567 79.398C19.4647 78.99 19.6687 78.45 19.6687 77.778V72.072ZM27.2491 81.144C26.3851 81.144 25.6411 80.922 25.0171 80.478C24.4051 80.022 23.9851 79.41 23.7571 78.642C23.6011 78.114 23.5231 77.37 23.5231 76.41C23.5231 75.546 23.6011 74.814 23.7571 74.214C23.9731 73.47 24.3931 72.876 25.0171 72.432C25.6411 71.976 26.3851 71.748 27.2491 71.748C28.1251 71.748 28.8811 71.97 29.5171 72.414C30.1651 72.858 30.5851 73.41 30.7771 74.07C30.8371 74.286 30.8731 74.466 30.8851 74.61V74.646C30.8851 74.73 30.8311 74.784 30.7231 74.808L29.8231 74.934H29.7871C29.7031 74.934 29.6491 74.88 29.6251 74.772L29.5711 74.502C29.4631 74.046 29.1991 73.662 28.7791 73.35C28.3591 73.026 27.8491 72.864 27.2491 72.864C26.6491 72.864 26.1451 73.026 25.7371 73.35C25.3411 73.662 25.0831 74.082 24.9631 74.61C24.8551 75.066 24.8011 75.672 24.8011 76.428C24.8011 77.22 24.8551 77.832 24.9631 78.264C25.0831 78.804 25.3411 79.236 25.7371 79.56C26.1451 79.872 26.6491 80.028 27.2491 80.028C27.8371 80.028 28.3411 79.878 28.7611 79.578C29.1931 79.266 29.4631 78.87 29.5711 78.39V78.318L29.5891 78.246C29.6011 78.126 29.6731 78.078 29.8051 78.102L30.6871 78.246C30.8071 78.27 30.8611 78.336 30.8491 78.444L30.7771 78.804C30.5971 79.5 30.1831 80.064 29.5351 80.496C28.8871 80.928 28.1251 81.144 27.2491 81.144ZM36.5479 81.144C35.6839 81.144 34.9399 80.922 34.3159 80.478C33.7039 80.022 33.2839 79.41 33.0559 78.642C32.8999 78.114 32.8219 77.37 32.8219 76.41C32.8219 75.546 32.8999 74.814 33.0559 74.214C33.2719 73.47 33.6919 72.876 34.3159 72.432C34.9399 71.976 35.6839 71.748 36.5479 71.748C37.4239 71.748 38.1799 71.97 38.8159 72.414C39.4639 72.858 39.8839 73.41 40.0759 74.07C40.1359 74.286 40.1719 74.466 40.1839 74.61V74.646C40.1839 74.73 40.1299 74.784 40.0219 74.808L39.1219 74.934H39.0859C39.0019 74.934 38.9479 74.88 38.9239 74.772L38.8699 74.502C38.7619 74.046 38.4979 73.662 38.0779 73.35C37.6579 73.026 37.1479 72.864 36.5479 72.864C35.9479 72.864 35.4439 73.026 35.0359 73.35C34.6399 73.662 34.3819 74.082 34.2619 74.61C34.1539 75.066 34.0999 75.672 34.0999 76.428C34.0999 77.22 34.1539 77.832 34.2619 78.264C34.3819 78.804 34.6399 79.236 35.0359 79.56C35.4439 79.872 35.9479 80.028 36.5479 80.028C37.1359 80.028 37.6399 79.878 38.0599 79.578C38.4919 79.266 38.7619 78.87 38.8699 78.39V78.318L38.8879 78.246C38.8999 78.126 38.9719 78.078 39.1039 78.102L39.9859 78.246C40.1059 78.27 40.1599 78.336 40.1479 78.444L40.0759 78.804C39.8959 79.5 39.4819 80.064 38.8339 80.496C38.1859 80.928 37.4239 81.144 36.5479 81.144ZM49.3928 74.916C49.4408 75.252 49.4648 75.672 49.4648 76.176V76.752C49.4648 76.872 49.4048 76.932 49.2848 76.932H43.4708C43.4228 76.932 43.3988 76.956 43.3988 77.004C43.4228 77.664 43.4588 78.09 43.5068 78.282C43.6388 78.822 43.9208 79.248 44.3528 79.56C44.7848 79.872 45.3368 80.028 46.0088 80.028C46.5128 80.028 46.9568 79.914 47.3408 79.686C47.7248 79.458 48.0248 79.134 48.2408 78.714C48.3128 78.606 48.3968 78.582 48.4928 78.642L49.1948 79.056C49.2908 79.116 49.3148 79.2 49.2668 79.308C48.9668 79.884 48.5168 80.34 47.9168 80.676C47.3168 81 46.6268 81.162 45.8468 81.162C44.9948 81.15 44.2808 80.946 43.7048 80.55C43.1288 80.154 42.7148 79.602 42.4628 78.894C42.2468 78.318 42.1388 77.49 42.1388 76.41C42.1388 75.906 42.1448 75.498 42.1567 75.186C42.1808 74.862 42.2288 74.574 42.3008 74.322C42.5048 73.542 42.9128 72.918 43.5248 72.45C44.1488 71.982 44.8988 71.748 45.7748 71.748C46.8668 71.748 47.7068 72.024 48.2948 72.576C48.8828 73.128 49.2488 73.908 49.3928 74.916ZM45.7748 72.864C45.1868 72.864 44.6948 73.02 44.2988 73.332C43.9148 73.632 43.6628 74.04 43.5428 74.556C43.4708 74.808 43.4228 75.216 43.3988 75.78C43.3988 75.828 43.4228 75.852 43.4708 75.852H48.1328C48.1808 75.852 48.2048 75.828 48.2048 75.78C48.1808 75.24 48.1448 74.856 48.0968 74.628C47.9648 74.088 47.6948 73.662 47.2868 73.35C46.8908 73.026 46.3868 72.864 45.7748 72.864ZM54.8362 81.09C54.1642 81.09 53.5642 80.982 53.0362 80.766C52.5202 80.55 52.1182 80.262 51.8302 79.902C51.5542 79.542 51.4162 79.14 51.4162 78.696V78.48C51.4162 78.36 51.4762 78.3 51.5962 78.3H52.4602C52.5802 78.3 52.6402 78.36 52.6402 78.48V78.624C52.6402 79.02 52.8442 79.368 53.2522 79.668C53.6722 79.956 54.1942 80.1 54.8182 80.1C55.4422 80.1 55.9462 79.962 56.3302 79.686C56.7142 79.398 56.9062 79.038 56.9062 78.606C56.9062 78.306 56.8042 78.06 56.6002 77.868C56.4082 77.676 56.1742 77.526 55.8982 77.418C55.6342 77.31 55.2202 77.172 54.6562 77.004C53.9842 76.812 53.4322 76.62 53.0002 76.428C52.5682 76.236 52.2022 75.972 51.9022 75.636C51.6142 75.288 51.4702 74.85 51.4702 74.322C51.4702 73.554 51.7702 72.942 52.3702 72.486C52.9702 72.03 53.7622 71.802 54.7462 71.802C55.4062 71.802 55.9882 71.91 56.4922 72.126C57.0082 72.342 57.4042 72.642 57.6802 73.026C57.9562 73.398 58.0942 73.818 58.0942 74.286V74.34C58.0942 74.46 58.0342 74.52 57.9142 74.52H57.0682C56.9482 74.52 56.8882 74.46 56.8882 74.34V74.286C56.8882 73.878 56.6902 73.536 56.2942 73.26C55.9102 72.984 55.3882 72.846 54.7282 72.846C54.1162 72.846 53.6242 72.972 53.2522 73.224C52.8802 73.464 52.6942 73.8 52.6942 74.232C52.6942 74.64 52.8742 74.952 53.2342 75.168C53.5942 75.384 54.1522 75.6 54.9082 75.816C55.6042 76.02 56.1682 76.212 56.6002 76.392C57.0322 76.572 57.4042 76.836 57.7162 77.184C58.0282 77.52 58.1842 77.964 58.1842 78.516C58.1842 79.296 57.8782 79.92 57.2662 80.388C56.6542 80.856 55.8442 81.09 54.8362 81.09ZM63.2385 81.09C62.5665 81.09 61.9665 80.982 61.4385 80.766C60.9225 80.55 60.5205 80.262 60.2325 79.902C59.9565 79.542 59.8185 79.14 59.8185 78.696V78.48C59.8185 78.36 59.8785 78.3 59.9985 78.3H60.8625C60.9825 78.3 61.0425 78.36 61.0425 78.48V78.624C61.0425 79.02 61.2465 79.368 61.6545 79.668C62.0745 79.956 62.5965 80.1 63.2205 80.1C63.8445 80.1 64.3485 79.962 64.7325 79.686C65.1165 79.398 65.3085 79.038 65.3085 78.606C65.3085 78.306 65.2065 78.06 65.0025 77.868C64.8105 77.676 64.5765 77.526 64.3005 77.418C64.0365 77.31 63.6225 77.172 63.0585 77.004C62.3865 76.812 61.8345 76.62 61.4025 76.428C60.9705 76.236 60.6045 75.972 60.3045 75.636C60.0165 75.288 59.8725 74.85 59.8725 74.322C59.8725 73.554 60.1725 72.942 60.7725 72.486C61.3725 72.03 62.1645 71.802 63.1485 71.802C63.8085 71.802 64.3905 71.91 64.8945 72.126C65.4105 72.342 65.8065 72.642 66.0825 73.026C66.3585 73.398 66.4965 73.818 66.4965 74.286V74.34C66.4965 74.46 66.4365 74.52 66.3165 74.52H65.4705C65.3505 74.52 65.2905 74.46 65.2905 74.34V74.286C65.2905 73.878 65.0925 73.536 64.6965 73.26C64.3125 72.984 63.7905 72.846 63.1305 72.846C62.5185 72.846 62.0265 72.972 61.6545 73.224C61.2825 73.464 61.0965 73.8 61.0965 74.232C61.0965 74.64 61.2765 74.952 61.6365 75.168C61.9965 75.384 62.5545 75.6 63.3105 75.816C64.0065 76.02 64.5705 76.212 65.0025 76.392C65.4345 76.572 65.8065 76.836 66.1185 77.184C66.4305 77.52 66.5865 77.964 66.5865 78.516C66.5865 79.296 66.2805 79.92 65.6685 80.388C65.0565 80.856 64.2465 81.09 63.2385 81.09ZM72.499 69.516C71.839 69.516 71.389 69.666 71.149 69.966C70.909 70.254 70.789 70.752 70.789 71.46V71.82C70.789 71.868 70.813 71.892 70.861 71.892H72.877C72.997 71.892 73.057 71.952 73.057 72.072V72.882C73.057 73.002 72.997 73.062 72.877 73.062H70.861C70.813 73.062 70.789 73.086 70.789 73.134V80.82C70.789 80.94 70.729 81 70.609 81H69.709C69.589 81 69.529 80.94 69.529 80.82V73.134C69.529 73.086 69.505 73.062 69.457 73.062H68.251C68.131 73.062 68.071 73.002 68.071 72.882V72.072C68.071 71.952 68.131 71.892 68.251 71.892H69.457C69.505 71.892 69.529 71.868 69.529 71.82V71.388C69.529 70.644 69.613 70.062 69.781 69.642C69.949 69.21 70.237 68.898 70.645 68.706C71.065 68.502 71.647 68.4 72.391 68.4H72.913C73.033 68.4 73.093 68.46 73.093 68.58V69.336C73.093 69.456 73.033 69.516 72.913 69.516H72.499ZM80.823 72.072C80.823 71.952 80.883 71.892 81.003 71.892H81.921C82.041 71.892 82.101 71.952 82.101 72.072V80.82C82.101 80.94 82.041 81 81.921 81H81.003C80.883 81 80.823 80.94 80.823 80.82V80.046C80.823 80.022 80.811 80.004 80.787 79.992C80.763 79.98 80.745 79.986 80.733 80.01C80.229 80.754 79.431 81.126 78.339 81.126C77.763 81.126 77.229 81.012 76.737 80.784C76.257 80.544 75.873 80.202 75.585 79.758C75.309 79.314 75.171 78.78 75.171 78.156V72.072C75.171 71.952 75.231 71.892 75.351 71.892H76.269C76.389 71.892 76.449 71.952 76.449 72.072V77.778C76.449 78.462 76.641 79.008 77.025 79.416C77.409 79.812 77.931 80.01 78.591 80.01C79.275 80.01 79.815 79.806 80.211 79.398C80.619 78.99 80.823 78.45 80.823 77.778V72.072ZM85.1454 81C85.0254 81 84.9654 80.94 84.9654 80.82V68.58C84.9654 68.46 85.0254 68.4 85.1454 68.4H86.0634C86.1834 68.4 86.2434 68.46 86.2434 68.58V80.82C86.2434 80.94 86.1834 81 86.0634 81H85.1454ZM97.7573 68.382C98.8133 68.382 99.6593 68.706 100.295 69.354C100.943 70.002 101.267 70.854 101.267 71.91C101.267 72.954 100.937 73.794 100.277 74.43C99.6293 75.066 98.7713 75.384 97.7033 75.384H94.1933C94.1453 75.384 94.1213 75.408 94.1213 75.456V80.82C94.1213 80.94 94.0613 81 93.9413 81H93.0233C92.9033 81 92.8433 80.94 92.8433 80.82V68.562C92.8433 68.442 92.9033 68.382 93.0233 68.382H97.7573ZM97.6133 74.322C98.3213 74.322 98.8973 74.106 99.3413 73.674C99.7853 73.23 100.007 72.648 100.007 71.928C100.007 71.196 99.7853 70.608 99.3413 70.164C98.8973 69.72 98.3213 69.498 97.6133 69.498H94.1933C94.1453 69.498 94.1213 69.522 94.1213 69.57V74.25C94.1213 74.298 94.1453 74.322 94.1933 74.322H97.6133ZM107.042 71.802C107.438 71.802 107.78 71.88 108.068 72.036C108.164 72.084 108.2 72.162 108.176 72.27L107.978 73.152C107.942 73.272 107.864 73.308 107.744 73.26C107.54 73.176 107.306 73.134 107.042 73.134L106.808 73.152C106.184 73.176 105.668 73.41 105.26 73.854C104.852 74.286 104.648 74.838 104.648 75.51V80.82C104.648 80.94 104.588 81 104.468 81H103.55C103.43 81 103.37 80.94 103.37 80.82V72.072C103.37 71.952 103.43 71.892 103.55 71.892H104.468C104.588 71.892 104.648 71.952 104.648 72.072V73.17C104.648 73.206 104.654 73.23 104.666 73.242C104.69 73.242 104.708 73.23 104.72 73.206C104.972 72.762 105.29 72.42 105.674 72.18C106.07 71.928 106.526 71.802 107.042 71.802ZM113.312 81.144C112.448 81.144 111.704 80.922 111.08 80.478C110.456 80.034 110.024 79.422 109.784 78.642C109.616 78.09 109.532 77.352 109.532 76.428C109.532 75.504 109.616 74.772 109.784 74.232C110.012 73.464 110.438 72.858 111.062 72.414C111.686 71.97 112.442 71.748 113.33 71.748C114.182 71.748 114.914 71.97 115.526 72.414C116.15 72.858 116.576 73.458 116.804 74.214C116.972 74.73 117.056 75.468 117.056 76.428C117.056 77.4 116.972 78.138 116.804 78.642C116.576 79.422 116.15 80.034 115.526 80.478C114.914 80.922 114.176 81.144 113.312 81.144ZM113.312 80.028C113.888 80.028 114.38 79.872 114.788 79.56C115.196 79.236 115.472 78.804 115.616 78.264C115.724 77.832 115.778 77.226 115.778 76.446C115.778 75.654 115.73 75.048 115.634 74.628C115.49 74.088 115.208 73.662 114.788 73.35C114.38 73.026 113.882 72.864 113.294 72.864C112.706 72.864 112.208 73.026 111.8 73.35C111.392 73.662 111.116 74.088 110.972 74.628C110.876 75.048 110.828 75.654 110.828 76.446C110.828 77.238 110.876 77.844 110.972 78.264C111.104 78.804 111.374 79.236 111.782 79.56C112.202 79.872 112.712 80.028 113.312 80.028ZM120.331 70.236C120.031 70.236 119.785 70.14 119.593 69.948C119.413 69.756 119.323 69.516 119.323 69.228C119.323 68.928 119.413 68.688 119.593 68.508C119.785 68.316 120.031 68.22 120.331 68.22C120.619 68.22 120.859 68.316 121.051 68.508C121.243 68.688 121.339 68.928 121.339 69.228C121.339 69.516 121.243 69.756 121.051 69.948C120.859 70.14 120.619 70.236 120.331 70.236ZM117.757 84.744C117.637 84.744 117.577 84.684 117.577 84.564V83.826C117.577 83.706 117.637 83.646 117.757 83.646C119.041 83.634 119.683 83.016 119.683 81.792V72.072C119.683 71.952 119.743 71.892 119.863 71.892H120.781C120.901 71.892 120.961 71.952 120.961 72.072V81.792C120.961 82.812 120.709 83.556 120.205 84.024C119.701 84.492 118.885 84.732 117.757 84.744ZM131.043 74.916C131.091 75.252 131.115 75.672 131.115 76.176V76.752C131.115 76.872 131.055 76.932 130.935 76.932H125.121C125.073 76.932 125.049 76.956 125.049 77.004C125.073 77.664 125.109 78.09 125.157 78.282C125.289 78.822 125.571 79.248 126.003 79.56C126.435 79.872 126.987 80.028 127.659 80.028C128.163 80.028 128.607 79.914 128.991 79.686C129.375 79.458 129.675 79.134 129.891 78.714C129.963 78.606 130.047 78.582 130.143 78.642L130.845 79.056C130.941 79.116 130.965 79.2 130.917 79.308C130.617 79.884 130.167 80.34 129.567 80.676C128.967 81 128.277 81.162 127.497 81.162C126.645 81.15 125.931 80.946 125.355 80.55C124.779 80.154 124.365 79.602 124.113 78.894C123.897 78.318 123.789 77.49 123.789 76.41C123.789 75.906 123.795 75.498 123.807 75.186C123.831 74.862 123.879 74.574 123.951 74.322C124.155 73.542 124.563 72.918 125.175 72.45C125.799 71.982 126.549 71.748 127.425 71.748C128.517 71.748 129.357 72.024 129.945 72.576C130.533 73.128 130.899 73.908 131.043 74.916ZM127.425 72.864C126.837 72.864 126.345 73.02 125.949 73.332C125.565 73.632 125.313 74.04 125.193 74.556C125.121 74.808 125.073 75.216 125.049 75.78C125.049 75.828 125.073 75.852 125.121 75.852H129.783C129.831 75.852 129.855 75.828 129.855 75.78C129.831 75.24 129.795 74.856 129.747 74.628C129.615 74.088 129.345 73.662 128.937 73.35C128.541 73.026 128.037 72.864 127.425 72.864ZM137.095 81.144C136.231 81.144 135.487 80.922 134.863 80.478C134.251 80.022 133.831 79.41 133.603 78.642C133.447 78.114 133.369 77.37 133.369 76.41C133.369 75.546 133.447 74.814 133.603 74.214C133.819 73.47 134.239 72.876 134.863 72.432C135.487 71.976 136.231 71.748 137.095 71.748C137.971 71.748 138.727 71.97 139.363 72.414C140.011 72.858 140.431 73.41 140.623 74.07C140.683 74.286 140.719 74.466 140.731 74.61V74.646C140.731 74.73 140.677 74.784 140.569 74.808L139.669 74.934H139.633C139.549 74.934 139.495 74.88 139.471 74.772L139.417 74.502C139.309 74.046 139.045 73.662 138.625 73.35C138.205 73.026 137.695 72.864 137.095 72.864C136.495 72.864 135.991 73.026 135.583 73.35C135.187 73.662 134.929 74.082 134.809 74.61C134.701 75.066 134.647 75.672 134.647 76.428C134.647 77.22 134.701 77.832 134.809 78.264C134.929 78.804 135.187 79.236 135.583 79.56C135.991 79.872 136.495 80.028 137.095 80.028C137.683 80.028 138.187 79.878 138.607 79.578C139.039 79.266 139.309 78.87 139.417 78.39V78.318L139.435 78.246C139.447 78.126 139.519 78.078 139.651 78.102L140.533 78.246C140.653 78.27 140.707 78.336 140.695 78.444L140.623 78.804C140.443 79.5 140.029 80.064 139.381 80.496C138.733 80.928 137.971 81.144 137.095 81.144ZM147.094 72.774C147.094 72.894 147.034 72.954 146.914 72.954H144.88C144.832 72.954 144.808 72.978 144.808 73.026V78.336C144.808 78.912 144.934 79.32 145.186 79.56C145.45 79.788 145.858 79.902 146.41 79.902H146.86C146.98 79.902 147.04 79.962 147.04 80.082V80.82C147.04 80.94 146.98 81 146.86 81C146.716 81.012 146.494 81.018 146.194 81.018C145.33 81.018 144.676 80.856 144.232 80.532C143.788 80.208 143.566 79.608 143.566 78.732V73.026C143.566 72.978 143.542 72.954 143.494 72.954H142.396C142.276 72.954 142.216 72.894 142.216 72.774V72.072C142.216 71.952 142.276 71.892 142.396 71.892H143.494C143.542 71.892 143.566 71.868 143.566 71.82V69.732C143.566 69.612 143.626 69.552 143.746 69.552H144.628C144.748 69.552 144.808 69.612 144.808 69.732V71.82C144.808 71.868 144.832 71.892 144.88 71.892H146.914C147.034 71.892 147.094 71.952 147.094 72.072V72.774ZM152.553 81.09C151.881 81.09 151.281 80.982 150.753 80.766C150.237 80.55 149.835 80.262 149.547 79.902C149.271 79.542 149.133 79.14 149.133 78.696V78.48C149.133 78.36 149.193 78.3 149.313 78.3H150.177C150.297 78.3 150.357 78.36 150.357 78.48V78.624C150.357 79.02 150.561 79.368 150.969 79.668C151.389 79.956 151.911 80.1 152.535 80.1C153.159 80.1 153.663 79.962 154.047 79.686C154.431 79.398 154.623 79.038 154.623 78.606C154.623 78.306 154.521 78.06 154.317 77.868C154.125 77.676 153.891 77.526 153.615 77.418C153.351 77.31 152.937 77.172 152.373 77.004C151.701 76.812 151.149 76.62 150.717 76.428C150.285 76.236 149.919 75.972 149.619 75.636C149.331 75.288 149.187 74.85 149.187 74.322C149.187 73.554 149.487 72.942 150.087 72.486C150.687 72.03 151.479 71.802 152.463 71.802C153.123 71.802 153.705 71.91 154.209 72.126C154.725 72.342 155.121 72.642 155.397 73.026C155.673 73.398 155.811 73.818 155.811 74.286V74.34C155.811 74.46 155.751 74.52 155.631 74.52H154.785C154.665 74.52 154.605 74.46 154.605 74.34V74.286C154.605 73.878 154.407 73.536 154.011 73.26C153.627 72.984 153.105 72.846 152.445 72.846C151.833 72.846 151.341 72.972 150.969 73.224C150.597 73.464 150.411 73.8 150.411 74.232C150.411 74.64 150.591 74.952 150.951 75.168C151.311 75.384 151.869 75.6 152.625 75.816C153.321 76.02 153.885 76.212 154.317 76.392C154.749 76.572 155.121 76.836 155.433 77.184C155.745 77.52 155.901 77.964 155.901 78.516C155.901 79.296 155.595 79.92 154.983 80.388C154.371 80.856 153.561 81.09 152.553 81.09Z" fill="#989899"/>
</svg>
