<svg width="155" height="107" viewBox="0 0 155 107" fill="none" xmlns="http://www.w3.org/2000/svg">
<path d="M32.972 45.232C33.452 45.232 33.692 45.472 33.692 45.952V48.976C33.692 49.456 33.452 49.696 32.972 49.696H21.02C20.828 49.696 20.732 49.792 20.732 49.984V61.648C20.732 62.128 20.492 62.368 20.012 62.368H16.988C16.508 62.368 16.268 62.128 16.268 61.648V49.984C16.268 49.792 16.172 49.696 15.98 49.696H4.028C3.548 49.696 3.308 49.456 3.308 48.976V45.952C3.308 45.472 3.548 45.232 4.028 45.232H15.98C16.172 45.232 16.268 45.136 16.268 44.944V32.704C16.268 32.224 16.508 31.984 16.988 31.984H20.012C20.492 31.984 20.732 32.224 20.732 32.704V44.944C20.732 45.136 20.828 45.232 21.02 45.232H32.972Z" fill="#FF4D01"/>
<path d="M69.085 46.168C70.045 48.52 70.525 51.328 70.525 54.592C70.525 57.232 70.165 59.56 69.445 61.576C68.485 64.456 66.853 66.688 64.549 68.272C62.293 69.808 59.485 70.576 56.125 70.576C52.765 70.576 49.885 69.712 47.485 67.984C45.085 66.208 43.429 63.832 42.517 60.856C42.085 59.512 41.821 57.688 41.725 55.384C41.725 54.904 41.965 54.664 42.445 54.664H46.117C46.597 54.664 46.837 54.904 46.837 55.384C46.933 56.776 47.101 58.072 47.341 59.272C47.869 61.384 48.877 63.064 50.365 64.312C51.901 65.512 53.797 66.112 56.053 66.112C60.373 66.112 63.181 64.192 64.477 60.352C65.053 58.768 65.341 56.8 65.341 54.448C65.341 51.568 64.957 49.216 64.189 47.392C62.653 43.936 59.941 42.208 56.053 42.208C55.333 42.208 54.445 42.472 53.389 43C53.197 43.096 53.053 43.144 52.957 43.144C52.765 43.144 52.597 43.024 52.453 42.784L50.581 40.264C50.341 39.88 50.365 39.544 50.653 39.256L63.325 24.424C63.469 24.184 63.421 24.064 63.181 24.064H42.877C42.397 24.064 42.157 23.824 42.157 23.344V20.32C42.157 19.84 42.397 19.6 42.877 19.6H69.517C69.997 19.6 70.237 19.84 70.237 20.32V23.848C70.237 24.088 70.117 24.376 69.877 24.712L58.357 38.536C58.261 38.632 58.237 38.728 58.285 38.824C58.333 38.872 58.429 38.896 58.573 38.896C63.709 39.232 67.213 41.656 69.085 46.168ZM107.94 47.968C108.372 50.08 108.588 52.24 108.588 54.448C108.588 56.8 108.372 58.816 107.94 60.496C107.124 63.568 105.492 66.016 103.044 67.84C100.596 69.616 97.6437 70.504 94.1877 70.504C90.7797 70.504 87.8757 69.64 85.4757 67.912C83.0757 66.184 81.4437 63.88 80.5797 61C80.2437 59.944 80.0277 58.888 79.9317 57.832V57.688C79.9317 57.304 80.1477 57.112 80.5797 57.112H84.3957C84.8757 57.112 85.1397 57.352 85.1877 57.832C85.1877 58.12 85.2837 58.6 85.4757 59.272C85.9557 61.336 86.9397 62.992 88.4277 64.24C89.9637 65.44 91.8597 66.04 94.1157 66.04C96.4197 66.04 98.3397 65.392 99.8757 64.096C101.46 62.8 102.492 61.024 102.972 58.768C103.26 57.664 103.404 56.224 103.404 54.448C103.404 52.816 103.284 51.256 103.044 49.768C102.708 47.56 101.748 45.88 100.164 44.728C98.5797 43.576 96.6117 43 94.2597 43C92.1477 43 90.2517 43.48 88.5717 44.44C86.8917 45.4 85.8117 46.672 85.3317 48.256C85.1877 48.688 84.9237 48.904 84.5397 48.904H80.6517C80.1717 48.904 79.9317 48.664 79.9317 48.184V20.32C79.9317 19.84 80.1717 19.6 80.6517 19.6H105.852C106.332 19.6 106.572 19.84 106.572 20.32V23.344C106.572 23.824 106.332 24.064 105.852 24.064H85.3317C85.1397 24.064 85.0437 24.16 85.0437 24.352L84.9717 41.776C84.9717 41.872 84.9957 41.944 85.0437 41.992C85.1397 42.04 85.2357 42.016 85.3317 41.92C86.5317 40.816 87.9477 39.976 89.5797 39.4C91.2117 38.776 92.9397 38.464 94.7637 38.464C98.1717 38.464 101.052 39.304 103.404 40.984C105.756 42.616 107.268 44.944 107.94 47.968ZM132.396 70.72C127.788 70.72 124.116 69.4 121.38 66.76C118.644 64.12 117.276 60.592 117.276 56.176V33.424C117.276 29.008 118.644 25.504 121.38 22.912C124.116 20.272 127.788 18.952 132.396 18.952C137.052 18.952 140.772 20.272 143.556 22.912C146.34 25.552 147.732 29.056 147.732 33.424V56.176C147.732 60.592 146.34 64.12 143.556 66.76C140.772 69.4 137.052 70.72 132.396 70.72ZM132.396 66.256C135.468 66.256 137.94 65.368 139.812 63.592C141.684 61.816 142.62 59.44 142.62 56.464V33.208C142.62 30.28 141.684 27.928 139.812 26.152C137.988 24.376 135.516 23.488 132.396 23.488C129.372 23.488 126.948 24.376 125.124 26.152C123.3 27.928 122.388 30.28 122.388 33.208V56.464C122.388 59.44 123.3 61.816 125.124 63.592C126.948 65.368 129.372 66.256 132.396 66.256Z" fill="#191919"/>
<path d="M16.0843 91.336C16.0843 91.456 16.0243 91.516 15.9043 91.516H9.28028C9.23228 91.516 9.20828 91.54 9.20828 91.588V96.034C9.20828 96.082 9.23228 96.106 9.28028 96.106H13.9243C14.0443 96.106 14.1043 96.166 14.1043 96.286V97.042C14.1043 97.162 14.0443 97.222 13.9243 97.222H9.28028C9.23228 97.222 9.20828 97.246 9.20828 97.294V101.812C9.20828 101.86 9.23228 101.884 9.28028 101.884H15.9043C16.0243 101.884 16.0843 101.944 16.0843 102.064V102.82C16.0843 102.94 16.0243 103 15.9043 103H8.11028C7.99028 103 7.93028 102.94 7.93028 102.82V90.58C7.93028 90.46 7.99028 90.4 8.11028 90.4H15.9043C16.0243 90.4 16.0843 90.46 16.0843 90.58V91.336ZM17.8027 103C17.7307 103 17.6767 102.976 17.6407 102.928C17.6167 102.88 17.6287 102.832 17.6767 102.784L20.6827 98.5C20.7067 98.464 20.7067 98.428 20.6827 98.392L17.6767 94.108C17.6527 94.084 17.6407 94.054 17.6407 94.018C17.6407 93.934 17.6947 93.892 17.8027 93.892H18.7747C18.8707 93.892 18.9427 93.928 18.9907 94L21.3487 97.402C21.3607 97.414 21.3787 97.42 21.4027 97.42C21.4267 97.42 21.4447 97.414 21.4567 97.402L23.7967 94C23.8447 93.928 23.9167 93.892 24.0127 93.892H25.0747C25.1467 93.892 25.1947 93.916 25.2187 93.964C25.2427 94 25.2307 94.048 25.1827 94.108L22.1767 98.392C22.1647 98.428 22.1647 98.464 22.1767 98.5L25.1827 102.784C25.2067 102.808 25.2187 102.844 25.2187 102.892C25.2187 102.916 25.2067 102.94 25.1827 102.964C25.1587 102.988 25.1227 103 25.0747 103H24.0847C23.9887 103 23.9167 102.964 23.8687 102.892L21.5287 99.49C21.5167 99.466 21.4987 99.454 21.4747 99.454C21.4507 99.454 21.4327 99.466 21.4207 99.49L19.0447 102.892C18.9967 102.964 18.9247 103 18.8287 103H17.8027ZM33.7521 96.916C33.8001 97.252 33.8241 97.672 33.8241 98.176V98.752C33.8241 98.872 33.7641 98.932 33.6441 98.932H27.8301C27.7821 98.932 27.7581 98.956 27.7581 99.004C27.7821 99.664 27.8181 100.09 27.8661 100.282C27.9981 100.822 28.2801 101.248 28.7121 101.56C29.1441 101.872 29.6961 102.028 30.3681 102.028C30.8721 102.028 31.3161 101.914 31.7001 101.686C32.0841 101.458 32.3841 101.134 32.6001 100.714C32.6721 100.606 32.7561 100.582 32.8521 100.642L33.5541 101.056C33.6501 101.116 33.6741 101.2 33.6261 101.308C33.3261 101.884 32.8761 102.34 32.2761 102.676C31.6761 103 30.9861 103.162 30.2061 103.162C29.3541 103.15 28.6401 102.946 28.0641 102.55C27.4881 102.154 27.0741 101.602 26.8221 100.894C26.6061 100.318 26.4981 99.49 26.4981 98.41C26.4981 97.906 26.5041 97.498 26.5161 97.186C26.5401 96.862 26.5881 96.574 26.6601 96.322C26.8641 95.542 27.2721 94.918 27.8841 94.45C28.5081 93.982 29.2581 93.748 30.1341 93.748C31.2261 93.748 32.0661 94.024 32.6541 94.576C33.2421 95.128 33.6081 95.908 33.7521 96.916ZM30.1341 94.864C29.5461 94.864 29.0541 95.02 28.6581 95.332C28.2741 95.632 28.0221 96.04 27.9021 96.556C27.8301 96.808 27.7821 97.216 27.7581 97.78C27.7581 97.828 27.7821 97.852 27.8301 97.852H32.4921C32.5401 97.852 32.5641 97.828 32.5641 97.78C32.5401 97.24 32.5041 96.856 32.4561 96.628C32.3241 96.088 32.0541 95.662 31.6461 95.35C31.2501 95.026 30.7461 94.864 30.1341 94.864ZM39.8038 103.144C38.9398 103.144 38.1958 102.922 37.5718 102.478C36.9598 102.022 36.5398 101.41 36.3118 100.642C36.1558 100.114 36.0778 99.37 36.0778 98.41C36.0778 97.546 36.1558 96.814 36.3118 96.214C36.5278 95.47 36.9478 94.876 37.5718 94.432C38.1958 93.976 38.9398 93.748 39.8038 93.748C40.6798 93.748 41.4358 93.97 42.0718 94.414C42.7198 94.858 43.1398 95.41 43.3318 96.07C43.3918 96.286 43.4278 96.466 43.4398 96.61V96.646C43.4398 96.73 43.3858 96.784 43.2778 96.808L42.3778 96.934H42.3418C42.2578 96.934 42.2038 96.88 42.1798 96.772L42.1258 96.502C42.0178 96.046 41.7538 95.662 41.3338 95.35C40.9138 95.026 40.4038 94.864 39.8038 94.864C39.2038 94.864 38.6998 95.026 38.2918 95.35C37.8958 95.662 37.6378 96.082 37.5178 96.61C37.4098 97.066 37.3558 97.672 37.3558 98.428C37.3558 99.22 37.4098 99.832 37.5178 100.264C37.6378 100.804 37.8958 101.236 38.2918 101.56C38.6998 101.872 39.2038 102.028 39.8038 102.028C40.3918 102.028 40.8958 101.878 41.3158 101.578C41.7478 101.266 42.0178 100.87 42.1258 100.39V100.318L42.1438 100.246C42.1558 100.126 42.2278 100.078 42.3598 100.102L43.2418 100.246C43.3618 100.27 43.4158 100.336 43.4038 100.444L43.3318 100.804C43.1518 101.5 42.7378 102.064 42.0898 102.496C41.4418 102.928 40.6798 103.144 39.8038 103.144ZM51.2253 94.072C51.2253 93.952 51.2853 93.892 51.4053 93.892H52.3233C52.4433 93.892 52.5033 93.952 52.5033 94.072V102.82C52.5033 102.94 52.4433 103 52.3233 103H51.4053C51.2853 103 51.2253 102.94 51.2253 102.82V102.046C51.2253 102.022 51.2133 102.004 51.1893 101.992C51.1653 101.98 51.1473 101.986 51.1353 102.01C50.6313 102.754 49.8333 103.126 48.7413 103.126C48.1653 103.126 47.6313 103.012 47.1393 102.784C46.6593 102.544 46.2753 102.202 45.9873 101.758C45.7113 101.314 45.5733 100.78 45.5733 100.156V94.072C45.5733 93.952 45.6333 93.892 45.7533 93.892H46.6713C46.7913 93.892 46.8513 93.952 46.8513 94.072V99.778C46.8513 100.462 47.0433 101.008 47.4273 101.416C47.8113 101.812 48.3333 102.01 48.9933 102.01C49.6773 102.01 50.2173 101.806 50.6133 101.398C51.0213 100.99 51.2253 100.45 51.2253 99.778V94.072ZM59.4537 94.774C59.4537 94.894 59.3937 94.954 59.2737 94.954H57.2397C57.1917 94.954 57.1677 94.978 57.1677 95.026V100.336C57.1677 100.912 57.2937 101.32 57.5457 101.56C57.8097 101.788 58.2177 101.902 58.7697 101.902H59.2197C59.3397 101.902 59.3997 101.962 59.3997 102.082V102.82C59.3997 102.94 59.3397 103 59.2197 103C59.0757 103.012 58.8537 103.018 58.5537 103.018C57.6897 103.018 57.0357 102.856 56.5917 102.532C56.1477 102.208 55.9257 101.608 55.9257 100.732V95.026C55.9257 94.978 55.9017 94.954 55.8537 94.954H54.7557C54.6357 94.954 54.5757 94.894 54.5757 94.774V94.072C54.5757 93.952 54.6357 93.892 54.7557 93.892H55.8537C55.9017 93.892 55.9257 93.868 55.9257 93.82V91.732C55.9257 91.612 55.9857 91.552 56.1057 91.552H56.9877C57.1077 91.552 57.1677 91.612 57.1677 91.732V93.82C57.1677 93.868 57.1917 93.892 57.2397 93.892H59.2737C59.3937 93.892 59.4537 93.952 59.4537 94.072V94.774ZM68.6447 96.916C68.6927 97.252 68.7167 97.672 68.7167 98.176V98.752C68.7167 98.872 68.6567 98.932 68.5367 98.932H62.7227C62.6747 98.932 62.6507 98.956 62.6507 99.004C62.6747 99.664 62.7107 100.09 62.7587 100.282C62.8907 100.822 63.1727 101.248 63.6047 101.56C64.0367 101.872 64.5887 102.028 65.2607 102.028C65.7647 102.028 66.2087 101.914 66.5927 101.686C66.9767 101.458 67.2767 101.134 67.4927 100.714C67.5647 100.606 67.6487 100.582 67.7447 100.642L68.4467 101.056C68.5427 101.116 68.5667 101.2 68.5187 101.308C68.2187 101.884 67.7687 102.34 67.1687 102.676C66.5687 103 65.8787 103.162 65.0987 103.162C64.2467 103.15 63.5327 102.946 62.9567 102.55C62.3807 102.154 61.9667 101.602 61.7147 100.894C61.4987 100.318 61.3907 99.49 61.3907 98.41C61.3907 97.906 61.3967 97.498 61.4087 97.186C61.4327 96.862 61.4807 96.574 61.5527 96.322C61.7567 95.542 62.1647 94.918 62.7767 94.45C63.4007 93.982 64.1507 93.748 65.0267 93.748C66.1187 93.748 66.9587 94.024 67.5467 94.576C68.1347 95.128 68.5007 95.908 68.6447 96.916ZM65.0267 94.864C64.4387 94.864 63.9467 95.02 63.5507 95.332C63.1667 95.632 62.9147 96.04 62.7947 96.556C62.7227 96.808 62.6747 97.216 62.6507 97.78C62.6507 97.828 62.6747 97.852 62.7227 97.852H67.3847C67.4327 97.852 67.4567 97.828 67.4567 97.78C67.4327 97.24 67.3967 96.856 67.3487 96.628C67.2167 96.088 66.9467 95.662 66.5387 95.35C66.1427 95.026 65.6387 94.864 65.0267 94.864ZM76.9104 90.58C76.9104 90.46 76.9704 90.4 77.0904 90.4H78.0084C78.1284 90.4 78.1884 90.46 78.1884 90.58V102.82C78.1884 102.94 78.1284 103 78.0084 103H77.0904C76.9704 103 76.9104 102.94 76.9104 102.82V102.064C76.9104 102.04 76.8984 102.028 76.8744 102.028C76.8624 102.016 76.8444 102.022 76.8204 102.046C76.5564 102.394 76.2264 102.664 75.8304 102.856C75.4464 103.048 75.0144 103.144 74.5344 103.144C73.6944 103.144 72.9864 102.928 72.4104 102.496C71.8464 102.064 71.4564 101.476 71.2404 100.732C71.0724 100.192 70.9884 99.43 70.9884 98.446C70.9884 97.45 71.0604 96.706 71.2044 96.214C71.4204 95.446 71.8164 94.846 72.3924 94.414C72.9684 93.97 73.6824 93.748 74.5344 93.748C75.0024 93.748 75.4344 93.844 75.8304 94.036C76.2264 94.216 76.5564 94.48 76.8204 94.828C76.8444 94.852 76.8624 94.864 76.8744 94.864C76.8984 94.852 76.9104 94.834 76.9104 94.81V90.58ZM76.5864 100.642C76.6944 100.402 76.7724 100.12 76.8204 99.796C76.8684 99.472 76.8924 99.022 76.8924 98.446C76.8924 97.87 76.8684 97.42 76.8204 97.096C76.7724 96.76 76.6884 96.466 76.5684 96.214C76.4244 95.806 76.1844 95.482 75.8484 95.242C75.5244 94.99 75.1344 94.864 74.6784 94.864C74.1984 94.864 73.7844 94.984 73.4364 95.224C73.0884 95.464 72.8364 95.782 72.6804 96.178C72.5364 96.442 72.4284 96.742 72.3564 97.078C72.2964 97.402 72.2664 97.858 72.2664 98.446C72.2664 99.01 72.2904 99.454 72.3384 99.778C72.3864 100.09 72.4704 100.372 72.5904 100.624C72.7344 101.056 72.9864 101.398 73.3464 101.65C73.7184 101.902 74.1564 102.028 74.6604 102.028C75.1404 102.028 75.5424 101.902 75.8664 101.65C76.1904 101.398 76.4304 101.062 76.5864 100.642ZM89.728 90.382C90.784 90.382 91.63 90.706 92.266 91.354C92.914 92.002 93.238 92.854 93.238 93.91C93.238 94.954 92.908 95.794 92.248 96.43C91.6 97.066 90.742 97.384 89.674 97.384H86.164C86.116 97.384 86.092 97.408 86.092 97.456V102.82C86.092 102.94 86.032 103 85.912 103H84.994C84.874 103 84.814 102.94 84.814 102.82V90.562C84.814 90.442 84.874 90.382 84.994 90.382H89.728ZM89.584 96.322C90.292 96.322 90.868 96.106 91.312 95.674C91.756 95.23 91.978 94.648 91.978 93.928C91.978 93.196 91.756 92.608 91.312 92.164C90.868 91.72 90.292 91.498 89.584 91.498H86.164C86.116 91.498 86.092 91.522 86.092 91.57V96.25C86.092 96.298 86.116 96.322 86.164 96.322H89.584ZM99.0124 93.802C99.4084 93.802 99.7504 93.88 100.038 94.036C100.134 94.084 100.17 94.162 100.146 94.27L99.9484 95.152C99.9124 95.272 99.8344 95.308 99.7144 95.26C99.5104 95.176 99.2764 95.134 99.0124 95.134L98.7784 95.152C98.1544 95.176 97.6384 95.41 97.2304 95.854C96.8224 96.286 96.6184 96.838 96.6184 97.51V102.82C96.6184 102.94 96.5584 103 96.4384 103H95.5204C95.4004 103 95.3404 102.94 95.3404 102.82V94.072C95.3404 93.952 95.4004 93.892 95.5204 93.892H96.4384C96.5584 93.892 96.6184 93.952 96.6184 94.072V95.17C96.6184 95.206 96.6244 95.23 96.6364 95.242C96.6604 95.242 96.6784 95.23 96.6904 95.206C96.9424 94.762 97.2604 94.42 97.6444 94.18C98.0404 93.928 98.4964 93.802 99.0124 93.802ZM105.283 103.144C104.419 103.144 103.675 102.922 103.051 102.478C102.427 102.034 101.995 101.422 101.755 100.642C101.587 100.09 101.503 99.352 101.503 98.428C101.503 97.504 101.587 96.772 101.755 96.232C101.983 95.464 102.409 94.858 103.033 94.414C103.657 93.97 104.413 93.748 105.301 93.748C106.153 93.748 106.885 93.97 107.497 94.414C108.121 94.858 108.547 95.458 108.775 96.214C108.943 96.73 109.027 97.468 109.027 98.428C109.027 99.4 108.943 100.138 108.775 100.642C108.547 101.422 108.121 102.034 107.497 102.478C106.885 102.922 106.147 103.144 105.283 103.144ZM105.283 102.028C105.859 102.028 106.351 101.872 106.759 101.56C107.167 101.236 107.443 100.804 107.587 100.264C107.695 99.832 107.749 99.226 107.749 98.446C107.749 97.654 107.701 97.048 107.605 96.628C107.461 96.088 107.179 95.662 106.759 95.35C106.351 95.026 105.853 94.864 105.265 94.864C104.677 94.864 104.179 95.026 103.771 95.35C103.363 95.662 103.087 96.088 102.943 96.628C102.847 97.048 102.799 97.654 102.799 98.446C102.799 99.238 102.847 99.844 102.943 100.264C103.075 100.804 103.345 101.236 103.753 101.56C104.173 101.872 104.683 102.028 105.283 102.028ZM112.302 92.236C112.002 92.236 111.756 92.14 111.564 91.948C111.384 91.756 111.294 91.516 111.294 91.228C111.294 90.928 111.384 90.688 111.564 90.508C111.756 90.316 112.002 90.22 112.302 90.22C112.59 90.22 112.83 90.316 113.022 90.508C113.214 90.688 113.31 90.928 113.31 91.228C113.31 91.516 113.214 91.756 113.022 91.948C112.83 92.14 112.59 92.236 112.302 92.236ZM109.728 106.744C109.608 106.744 109.548 106.684 109.548 106.564V105.826C109.548 105.706 109.608 105.646 109.728 105.646C111.012 105.634 111.654 105.016 111.654 103.792V94.072C111.654 93.952 111.714 93.892 111.834 93.892H112.752C112.872 93.892 112.932 93.952 112.932 94.072V103.792C112.932 104.812 112.68 105.556 112.176 106.024C111.672 106.492 110.856 106.732 109.728 106.744ZM123.014 96.916C123.062 97.252 123.086 97.672 123.086 98.176V98.752C123.086 98.872 123.026 98.932 122.906 98.932H117.092C117.044 98.932 117.02 98.956 117.02 99.004C117.044 99.664 117.08 100.09 117.128 100.282C117.26 100.822 117.542 101.248 117.974 101.56C118.406 101.872 118.958 102.028 119.63 102.028C120.134 102.028 120.578 101.914 120.962 101.686C121.346 101.458 121.646 101.134 121.862 100.714C121.934 100.606 122.018 100.582 122.114 100.642L122.816 101.056C122.912 101.116 122.936 101.2 122.888 101.308C122.588 101.884 122.138 102.34 121.538 102.676C120.938 103 120.248 103.162 119.468 103.162C118.616 103.15 117.902 102.946 117.326 102.55C116.75 102.154 116.336 101.602 116.084 100.894C115.868 100.318 115.76 99.49 115.76 98.41C115.76 97.906 115.766 97.498 115.778 97.186C115.802 96.862 115.85 96.574 115.922 96.322C116.126 95.542 116.534 94.918 117.146 94.45C117.77 93.982 118.52 93.748 119.396 93.748C120.488 93.748 121.328 94.024 121.916 94.576C122.504 95.128 122.87 95.908 123.014 96.916ZM119.396 94.864C118.808 94.864 118.316 95.02 117.92 95.332C117.536 95.632 117.284 96.04 117.164 96.556C117.092 96.808 117.044 97.216 117.02 97.78C117.02 97.828 117.044 97.852 117.092 97.852H121.754C121.802 97.852 121.826 97.828 121.826 97.78C121.802 97.24 121.766 96.856 121.718 96.628C121.586 96.088 121.316 95.662 120.908 95.35C120.512 95.026 120.008 94.864 119.396 94.864ZM129.066 103.144C128.202 103.144 127.458 102.922 126.833 102.478C126.222 102.022 125.802 101.41 125.574 100.642C125.418 100.114 125.34 99.37 125.34 98.41C125.34 97.546 125.418 96.814 125.574 96.214C125.79 95.47 126.21 94.876 126.833 94.432C127.458 93.976 128.202 93.748 129.066 93.748C129.942 93.748 130.698 93.97 131.334 94.414C131.982 94.858 132.402 95.41 132.594 96.07C132.654 96.286 132.69 96.466 132.702 96.61V96.646C132.702 96.73 132.648 96.784 132.54 96.808L131.64 96.934H131.604C131.52 96.934 131.466 96.88 131.442 96.772L131.388 96.502C131.28 96.046 131.016 95.662 130.596 95.35C130.176 95.026 129.666 94.864 129.066 94.864C128.466 94.864 127.962 95.026 127.554 95.35C127.158 95.662 126.9 96.082 126.78 96.61C126.672 97.066 126.618 97.672 126.618 98.428C126.618 99.22 126.672 99.832 126.78 100.264C126.9 100.804 127.158 101.236 127.554 101.56C127.962 101.872 128.466 102.028 129.066 102.028C129.654 102.028 130.158 101.878 130.578 101.578C131.01 101.266 131.28 100.87 131.388 100.39V100.318L131.406 100.246C131.418 100.126 131.49 100.078 131.622 100.102L132.504 100.246C132.624 100.27 132.678 100.336 132.666 100.444L132.594 100.804C132.414 101.5 132 102.064 131.352 102.496C130.704 102.928 129.942 103.144 129.066 103.144ZM139.065 94.774C139.065 94.894 139.005 94.954 138.885 94.954H136.851C136.803 94.954 136.779 94.978 136.779 95.026V100.336C136.779 100.912 136.905 101.32 137.157 101.56C137.421 101.788 137.829 101.902 138.381 101.902H138.831C138.951 101.902 139.011 101.962 139.011 102.082V102.82C139.011 102.94 138.951 103 138.831 103C138.687 103.012 138.465 103.018 138.165 103.018C137.301 103.018 136.647 102.856 136.203 102.532C135.759 102.208 135.537 101.608 135.537 100.732V95.026C135.537 94.978 135.513 94.954 135.465 94.954H134.367C134.247 94.954 134.187 94.894 134.187 94.774V94.072C134.187 93.952 134.247 93.892 134.367 93.892H135.465C135.513 93.892 135.537 93.868 135.537 93.82V91.732C135.537 91.612 135.597 91.552 135.717 91.552H136.599C136.719 91.552 136.779 91.612 136.779 91.732V93.82C136.779 93.868 136.803 93.892 136.851 93.892H138.885C139.005 93.892 139.065 93.952 139.065 94.072V94.774ZM144.524 103.09C143.852 103.09 143.252 102.982 142.724 102.766C142.208 102.55 141.806 102.262 141.518 101.902C141.242 101.542 141.104 101.14 141.104 100.696V100.48C141.104 100.36 141.164 100.3 141.284 100.3H142.148C142.268 100.3 142.328 100.36 142.328 100.48V100.624C142.328 101.02 142.532 101.368 142.94 101.668C143.36 101.956 143.882 102.1 144.506 102.1C145.13 102.1 145.634 101.962 146.018 101.686C146.402 101.398 146.594 101.038 146.594 100.606C146.594 100.306 146.492 100.06 146.288 99.868C146.096 99.676 145.862 99.526 145.586 99.418C145.322 99.31 144.908 99.172 144.344 99.004C143.672 98.812 143.12 98.62 142.688 98.428C142.256 98.236 141.89 97.972 141.59 97.636C141.302 97.288 141.158 96.85 141.158 96.322C141.158 95.554 141.458 94.942 142.058 94.486C142.658 94.03 143.45 93.802 144.434 93.802C145.094 93.802 145.676 93.91 146.18 94.126C146.696 94.342 147.092 94.642 147.368 95.026C147.644 95.398 147.782 95.818 147.782 96.286V96.34C147.782 96.46 147.722 96.52 147.602 96.52H146.756C146.636 96.52 146.576 96.46 146.576 96.34V96.286C146.576 95.878 146.378 95.536 145.982 95.26C145.598 94.984 145.076 94.846 144.416 94.846C143.804 94.846 143.312 94.972 142.94 95.224C142.568 95.464 142.382 95.8 142.382 96.232C142.382 96.64 142.562 96.952 142.922 97.168C143.282 97.384 143.84 97.6 144.596 97.816C145.292 98.02 145.856 98.212 146.288 98.392C146.72 98.572 147.092 98.836 147.404 99.184C147.716 99.52 147.872 99.964 147.872 100.516C147.872 101.296 147.566 101.92 146.954 102.388C146.342 102.856 145.532 103.09 144.524 103.09Z" fill="#989899"/>
</svg>
