<svg width="162" height="107" viewBox="0 0 162 107" fill="none" xmlns="http://www.w3.org/2000/svg">
<path d="M32.972 45.232C33.452 45.232 33.692 45.472 33.692 45.952V48.976C33.692 49.456 33.452 49.696 32.972 49.696H21.02C20.828 49.696 20.732 49.792 20.732 49.984V61.648C20.732 62.128 20.492 62.368 20.012 62.368H16.988C16.508 62.368 16.268 62.128 16.268 61.648V49.984C16.268 49.792 16.172 49.696 15.98 49.696H4.028C3.548 49.696 3.308 49.456 3.308 48.976V45.952C3.308 45.472 3.548 45.232 4.028 45.232H15.98C16.172 45.232 16.268 45.136 16.268 44.944V32.704C16.268 32.224 16.508 31.984 16.988 31.984H20.012C20.492 31.984 20.732 32.224 20.732 32.704V44.944C20.732 45.136 20.828 45.232 21.02 45.232H32.972Z" fill="#FF4D01"/>
<path d="M73.0209 51.496C73.5009 51.496 73.7409 51.736 73.7409 52.216V55.384C73.7409 55.864 73.5009 56.104 73.0209 56.104H69.9249C69.7329 56.104 69.6369 56.2 69.6369 56.392V69.28C69.6369 69.76 69.3969 70 68.9169 70H65.2449C64.7649 70 64.5249 69.76 64.5249 69.28V56.392C64.5249 56.2 64.4289 56.104 64.2369 56.104H42.7089C42.2289 56.104 41.9889 55.864 41.9889 55.384V52.72C41.9889 52.48 42.0609 52.192 42.2049 51.856L56.9649 20.104C57.1089 19.768 57.3729 19.6 57.7569 19.6H61.5729C61.8129 19.6 61.9809 19.696 62.0769 19.888C62.2209 20.032 62.2449 20.224 62.1489 20.464L47.8209 51.136C47.7729 51.232 47.7729 51.328 47.8209 51.424C47.8689 51.472 47.9409 51.496 48.0369 51.496H64.2369C64.4289 51.496 64.5249 51.4 64.5249 51.208V39.616C64.5249 39.136 64.7649 38.896 65.2449 38.896H68.9169C69.3969 38.896 69.6369 39.136 69.6369 39.616V51.208C69.6369 51.4 69.7329 51.496 69.9249 51.496H73.0209ZM98.3492 70.72C93.7412 70.72 90.0692 69.4 87.3332 66.76C84.5972 64.12 83.2292 60.592 83.2292 56.176V33.424C83.2292 29.008 84.5972 25.504 87.3332 22.912C90.0692 20.272 93.7412 18.952 98.3492 18.952C103.005 18.952 106.725 20.272 109.509 22.912C112.293 25.552 113.685 29.056 113.685 33.424V56.176C113.685 60.592 112.293 64.12 109.509 66.76C106.725 69.4 103.005 70.72 98.3492 70.72ZM98.3492 66.256C101.421 66.256 103.893 65.368 105.765 63.592C107.637 61.816 108.573 59.44 108.573 56.464V33.208C108.573 30.28 107.637 27.928 105.765 26.152C103.941 24.376 101.469 23.488 98.3492 23.488C95.3252 23.488 92.9012 24.376 91.0772 26.152C89.2532 27.928 88.3412 30.28 88.3412 33.208V56.464C88.3412 59.44 89.2532 61.816 91.0772 63.592C92.9012 65.368 95.3252 66.256 98.3492 66.256ZM139.06 70.72C134.452 70.72 130.78 69.4 128.044 66.76C125.308 64.12 123.94 60.592 123.94 56.176V33.424C123.94 29.008 125.308 25.504 128.044 22.912C130.78 20.272 134.452 18.952 139.06 18.952C143.716 18.952 147.436 20.272 150.22 22.912C153.004 25.552 154.396 29.056 154.396 33.424V56.176C154.396 60.592 153.004 64.12 150.22 66.76C147.436 69.4 143.716 70.72 139.06 70.72ZM139.06 66.256C142.132 66.256 144.604 65.368 146.476 63.592C148.348 61.816 149.284 59.44 149.284 56.464V33.208C149.284 30.28 148.348 27.928 146.476 26.152C144.652 24.376 142.18 23.488 139.06 23.488C136.036 23.488 133.612 24.376 131.788 26.152C129.964 27.928 129.052 30.28 129.052 33.208V56.464C129.052 59.44 129.964 61.816 131.788 63.592C133.612 65.368 136.036 66.256 139.06 66.256Z" fill="#191919"/>
<path d="M22.5018 103.144C21.1458 103.144 20.0718 102.838 19.2798 102.226C18.4998 101.614 18.1098 100.798 18.1098 99.778V99.22C18.1098 99.1 18.1698 99.04 18.2898 99.04H19.1718C19.2918 99.04 19.3518 99.1 19.3518 99.22V99.706C19.3518 100.402 19.6398 100.966 20.2158 101.398C20.7918 101.818 21.5898 102.028 22.6098 102.028C23.5338 102.028 24.2358 101.836 24.7158 101.452C25.1958 101.056 25.4358 100.534 25.4358 99.886C25.4358 99.466 25.3218 99.106 25.0938 98.806C24.8778 98.506 24.5358 98.224 24.0678 97.96C23.6118 97.696 22.9638 97.39 22.1238 97.042C21.2238 96.682 20.5218 96.37 20.0178 96.106C19.5258 95.83 19.1238 95.482 18.8118 95.062C18.5118 94.63 18.3618 94.09 18.3618 93.442C18.3618 92.434 18.7098 91.654 19.4058 91.102C20.1138 90.538 21.0798 90.256 22.3038 90.256C23.6358 90.256 24.6858 90.568 25.4538 91.192C26.2218 91.816 26.6058 92.644 26.6058 93.676V94.072C26.6058 94.192 26.5458 94.252 26.4258 94.252H25.5258C25.4058 94.252 25.3458 94.192 25.3458 94.072V93.748C25.3458 93.052 25.0698 92.482 24.5178 92.038C23.9778 91.594 23.2218 91.372 22.2498 91.372C21.3978 91.372 20.7438 91.546 20.2878 91.894C19.8318 92.242 19.6038 92.746 19.6038 93.406C19.6038 93.838 19.7118 94.198 19.9278 94.486C20.1558 94.762 20.4738 95.008 20.8818 95.224C21.3018 95.428 21.9438 95.698 22.8078 96.034C23.6838 96.394 24.3858 96.73 24.9138 97.042C25.4538 97.354 25.8858 97.738 26.2098 98.194C26.5458 98.638 26.7138 99.184 26.7138 99.832C26.7138 100.84 26.3418 101.644 25.5978 102.244C24.8538 102.844 23.8218 103.144 22.5018 103.144ZM32.2404 93.748C33.3204 93.748 34.1544 94.024 34.7424 94.576C35.3304 95.128 35.6244 95.86 35.6244 96.772V102.82C35.6244 102.94 35.5644 103 35.4444 103H34.5264C34.4064 103 34.3464 102.94 34.3464 102.82V102.082C34.3464 102.058 34.3344 102.04 34.3104 102.028C34.2984 102.016 34.2804 102.022 34.2564 102.046C33.9564 102.406 33.5664 102.682 33.0864 102.874C32.6064 103.054 32.0724 103.144 31.4844 103.144C30.6324 103.144 29.9184 102.928 29.3424 102.496C28.7664 102.064 28.4784 101.404 28.4784 100.516C28.4784 99.616 28.8024 98.908 29.4504 98.392C30.1104 97.864 31.0224 97.6 32.1864 97.6H34.2744C34.3224 97.6 34.3464 97.576 34.3464 97.528V96.844C34.3464 96.232 34.1724 95.752 33.8244 95.404C33.4884 95.044 32.9604 94.864 32.2404 94.864C31.6644 94.864 31.1964 94.978 30.8364 95.206C30.4764 95.422 30.2544 95.728 30.1704 96.124C30.1344 96.244 30.0624 96.298 29.9544 96.286L28.9824 96.16C28.8504 96.136 28.7964 96.088 28.8204 96.016C28.9164 95.344 29.2764 94.798 29.9004 94.378C30.5244 93.958 31.3044 93.748 32.2404 93.748ZM31.7364 102.046C32.4444 102.046 33.0564 101.872 33.5724 101.524C34.0884 101.164 34.3464 100.684 34.3464 100.084V98.68C34.3464 98.632 34.3224 98.608 34.2744 98.608H32.3844C31.5924 98.608 30.9564 98.77 30.4764 99.094C29.9964 99.418 29.7564 99.868 29.7564 100.444C29.7564 100.972 29.9364 101.374 30.2964 101.65C30.6684 101.914 31.1484 102.046 31.7364 102.046ZM42.2994 94.774C42.2994 94.894 42.2394 94.954 42.1194 94.954H40.0854C40.0374 94.954 40.0134 94.978 40.0134 95.026V100.336C40.0134 100.912 40.1394 101.32 40.3914 101.56C40.6554 101.788 41.0634 101.902 41.6154 101.902H42.0654C42.1854 101.902 42.2454 101.962 42.2454 102.082V102.82C42.2454 102.94 42.1854 103 42.0654 103C41.9214 103.012 41.6994 103.018 41.3994 103.018C40.5354 103.018 39.8814 102.856 39.4374 102.532C38.9934 102.208 38.7714 101.608 38.7714 100.732V95.026C38.7714 94.978 38.7474 94.954 38.6994 94.954H37.6014C37.4814 94.954 37.4214 94.894 37.4214 94.774V94.072C37.4214 93.952 37.4814 93.892 37.6014 93.892H38.6994C38.7474 93.892 38.7714 93.868 38.7714 93.82V91.732C38.7714 91.612 38.8314 91.552 38.9514 91.552H39.8334C39.9534 91.552 40.0134 91.612 40.0134 91.732V93.82C40.0134 93.868 40.0374 93.892 40.0854 93.892H42.1194C42.2394 93.892 42.2994 93.952 42.2994 94.072V94.774ZM45.6341 92.236C45.3461 92.236 45.1061 92.14 44.9141 91.948C44.7221 91.756 44.6261 91.516 44.6261 91.228C44.6261 90.928 44.7221 90.688 44.9141 90.508C45.1061 90.316 45.3461 90.22 45.6341 90.22C45.9221 90.22 46.1621 90.316 46.3541 90.508C46.5461 90.688 46.6421 90.928 46.6421 91.228C46.6421 91.516 46.5461 91.756 46.3541 91.948C46.1621 92.14 45.9221 92.236 45.6341 92.236ZM45.1301 102.982C45.0101 102.982 44.9501 102.922 44.9501 102.802V94.054C44.9501 93.934 45.0101 93.874 45.1301 93.874H46.0481C46.1681 93.874 46.2281 93.934 46.2281 94.054V102.802C46.2281 102.922 46.1681 102.982 46.0481 102.982H45.1301ZM52.346 103.09C51.674 103.09 51.074 102.982 50.546 102.766C50.03 102.55 49.628 102.262 49.34 101.902C49.064 101.542 48.926 101.14 48.926 100.696V100.48C48.926 100.36 48.986 100.3 49.106 100.3H49.97C50.09 100.3 50.15 100.36 50.15 100.48V100.624C50.15 101.02 50.354 101.368 50.762 101.668C51.182 101.956 51.704 102.1 52.328 102.1C52.952 102.1 53.456 101.962 53.84 101.686C54.224 101.398 54.416 101.038 54.416 100.606C54.416 100.306 54.314 100.06 54.11 99.868C53.918 99.676 53.684 99.526 53.408 99.418C53.144 99.31 52.73 99.172 52.166 99.004C51.494 98.812 50.942 98.62 50.51 98.428C50.078 98.236 49.712 97.972 49.412 97.636C49.124 97.288 48.98 96.85 48.98 96.322C48.98 95.554 49.28 94.942 49.88 94.486C50.48 94.03 51.272 93.802 52.256 93.802C52.916 93.802 53.498 93.91 54.002 94.126C54.518 94.342 54.914 94.642 55.19 95.026C55.466 95.398 55.604 95.818 55.604 96.286V96.34C55.604 96.46 55.544 96.52 55.424 96.52H54.578C54.458 96.52 54.398 96.46 54.398 96.34V96.286C54.398 95.878 54.2 95.536 53.804 95.26C53.42 94.984 52.898 94.846 52.238 94.846C51.626 94.846 51.134 94.972 50.762 95.224C50.39 95.464 50.204 95.8 50.204 96.232C50.204 96.64 50.384 96.952 50.744 97.168C51.104 97.384 51.662 97.6 52.418 97.816C53.114 98.02 53.678 98.212 54.11 98.392C54.542 98.572 54.914 98.836 55.226 99.184C55.538 99.52 55.694 99.964 55.694 100.516C55.694 101.296 55.388 101.92 54.776 102.388C54.164 102.856 53.354 103.09 52.346 103.09ZM61.624 91.516C60.964 91.516 60.514 91.666 60.274 91.966C60.034 92.254 59.914 92.752 59.914 93.46V93.82C59.914 93.868 59.938 93.892 59.986 93.892H62.002C62.122 93.892 62.182 93.952 62.182 94.072V94.882C62.182 95.002 62.122 95.062 62.002 95.062H59.986C59.938 95.062 59.914 95.086 59.914 95.134V102.82C59.914 102.94 59.854 103 59.734 103H58.834C58.714 103 58.654 102.94 58.654 102.82V95.134C58.654 95.086 58.63 95.062 58.582 95.062H57.376C57.256 95.062 57.196 95.002 57.196 94.882V94.072C57.196 93.952 57.256 93.892 57.376 93.892H58.582C58.63 93.892 58.654 93.868 58.654 93.82V93.388C58.654 92.644 58.738 92.062 58.906 91.642C59.074 91.21 59.362 90.898 59.77 90.706C60.19 90.502 60.772 90.4 61.516 90.4H62.038C62.158 90.4 62.218 90.46 62.218 90.58V91.336C62.218 91.456 62.158 91.516 62.038 91.516H61.624ZM65.296 92.236C65.008 92.236 64.768 92.14 64.576 91.948C64.384 91.756 64.288 91.516 64.288 91.228C64.288 90.928 64.384 90.688 64.576 90.508C64.768 90.316 65.008 90.22 65.296 90.22C65.584 90.22 65.824 90.316 66.016 90.508C66.208 90.688 66.304 90.928 66.304 91.228C66.304 91.516 66.208 91.756 66.016 91.948C65.824 92.14 65.584 92.236 65.296 92.236ZM64.792 102.982C64.672 102.982 64.612 102.922 64.612 102.802V94.054C64.612 93.934 64.672 93.874 64.792 93.874H65.71C65.83 93.874 65.89 93.934 65.89 94.054V102.802C65.89 102.922 65.83 102.982 65.71 102.982H64.792ZM76.0295 96.916C76.0775 97.252 76.1015 97.672 76.1015 98.176V98.752C76.1015 98.872 76.0415 98.932 75.9215 98.932H70.1075C70.0595 98.932 70.0355 98.956 70.0355 99.004C70.0595 99.664 70.0955 100.09 70.1435 100.282C70.2755 100.822 70.5575 101.248 70.9895 101.56C71.4215 101.872 71.9735 102.028 72.6455 102.028C73.1495 102.028 73.5935 101.914 73.9775 101.686C74.3615 101.458 74.6615 101.134 74.8775 100.714C74.9495 100.606 75.0335 100.582 75.1295 100.642L75.8315 101.056C75.9275 101.116 75.9515 101.2 75.9035 101.308C75.6035 101.884 75.1535 102.34 74.5535 102.676C73.9535 103 73.2635 103.162 72.4835 103.162C71.6315 103.15 70.9175 102.946 70.3415 102.55C69.7655 102.154 69.3515 101.602 69.0995 100.894C68.8835 100.318 68.7755 99.49 68.7755 98.41C68.7755 97.906 68.7815 97.498 68.7935 97.186C68.8175 96.862 68.8655 96.574 68.9375 96.322C69.1415 95.542 69.5495 94.918 70.1615 94.45C70.7855 93.982 71.5355 93.748 72.4115 93.748C73.5035 93.748 74.3435 94.024 74.9315 94.576C75.5195 95.128 75.8855 95.908 76.0295 96.916ZM72.4115 94.864C71.8235 94.864 71.3315 95.02 70.9355 95.332C70.5515 95.632 70.2995 96.04 70.1795 96.556C70.1075 96.808 70.0595 97.216 70.0355 97.78C70.0355 97.828 70.0595 97.852 70.1075 97.852H74.7695C74.8175 97.852 74.8415 97.828 74.8415 97.78C74.8175 97.24 74.7815 96.856 74.7335 96.628C74.6015 96.088 74.3315 95.662 73.9235 95.35C73.5275 95.026 73.0235 94.864 72.4115 94.864ZM84.2951 90.58C84.2951 90.46 84.3551 90.4 84.4751 90.4H85.3931C85.5131 90.4 85.5731 90.46 85.5731 90.58V102.82C85.5731 102.94 85.5131 103 85.3931 103H84.4751C84.3551 103 84.2951 102.94 84.2951 102.82V102.064C84.2951 102.04 84.2831 102.028 84.2591 102.028C84.2471 102.016 84.2291 102.022 84.2051 102.046C83.9411 102.394 83.6111 102.664 83.2151 102.856C82.8311 103.048 82.3991 103.144 81.9191 103.144C81.0791 103.144 80.3711 102.928 79.7951 102.496C79.2311 102.064 78.8411 101.476 78.6251 100.732C78.4571 100.192 78.3731 99.43 78.3731 98.446C78.3731 97.45 78.4451 96.706 78.5891 96.214C78.8051 95.446 79.2011 94.846 79.7771 94.414C80.3531 93.97 81.0671 93.748 81.9191 93.748C82.3871 93.748 82.8191 93.844 83.2151 94.036C83.6111 94.216 83.9411 94.48 84.2051 94.828C84.2291 94.852 84.2471 94.864 84.2591 94.864C84.2831 94.852 84.2951 94.834 84.2951 94.81V90.58ZM83.9711 100.642C84.0791 100.402 84.1571 100.12 84.2051 99.796C84.2531 99.472 84.2771 99.022 84.2771 98.446C84.2771 97.87 84.2531 97.42 84.2051 97.096C84.1571 96.76 84.0731 96.466 83.9531 96.214C83.8091 95.806 83.5691 95.482 83.2331 95.242C82.9091 94.99 82.5191 94.864 82.0631 94.864C81.5831 94.864 81.1691 94.984 80.8211 95.224C80.4731 95.464 80.2211 95.782 80.0651 96.178C79.9211 96.442 79.8131 96.742 79.7411 97.078C79.6811 97.402 79.6511 97.858 79.6511 98.446C79.6511 99.01 79.6751 99.454 79.7231 99.778C79.7711 100.09 79.8551 100.372 79.9751 100.624C80.1191 101.056 80.3711 101.398 80.7311 101.65C81.1031 101.902 81.5411 102.028 82.0451 102.028C82.5251 102.028 82.9271 101.902 83.2511 101.65C83.5751 101.398 83.8151 101.062 83.9711 100.642ZM96.1588 103.162C95.3188 103.162 94.5808 103 93.9448 102.676C93.3088 102.34 92.8108 101.872 92.4508 101.272C92.1028 100.66 91.9288 99.958 91.9288 99.166V94.216C91.9288 93.436 92.1028 92.746 92.4508 92.146C92.8108 91.546 93.3088 91.084 93.9448 90.76C94.5808 90.424 95.3188 90.256 96.1588 90.256C96.9988 90.256 97.7368 90.418 98.3728 90.742C99.0088 91.066 99.5008 91.522 99.8488 92.11C100.209 92.698 100.389 93.376 100.389 94.144C100.389 94.204 100.371 94.252 100.335 94.288C100.299 94.324 100.257 94.342 100.209 94.342L99.2908 94.396C99.1708 94.396 99.1108 94.342 99.1108 94.234V94.18C99.1108 93.328 98.8408 92.65 98.3008 92.146C97.7608 91.63 97.0468 91.372 96.1588 91.372C95.2708 91.372 94.5568 91.63 94.0168 92.146C93.4768 92.662 93.2068 93.34 93.2068 94.18V99.22C93.2068 100.06 93.4768 100.738 94.0168 101.254C94.5568 101.77 95.2708 102.028 96.1588 102.028C97.0468 102.028 97.7608 101.776 98.3008 101.272C98.8408 100.756 99.1108 100.072 99.1108 99.22V99.184C99.1108 99.076 99.1708 99.022 99.2908 99.022L100.209 99.076C100.329 99.076 100.389 99.13 100.389 99.238C100.389 100.018 100.209 100.708 99.8488 101.308C99.5008 101.896 99.0088 102.352 98.3728 102.676C97.7368 103 96.9988 103.162 96.1588 103.162ZM103.186 103C103.066 103 103.006 102.94 103.006 102.82V90.58C103.006 90.46 103.066 90.4 103.186 90.4H104.104C104.224 90.4 104.284 90.46 104.284 90.58V102.82C104.284 102.94 104.224 103 104.104 103H103.186ZM108.019 92.236C107.731 92.236 107.491 92.14 107.299 91.948C107.107 91.756 107.011 91.516 107.011 91.228C107.011 90.928 107.107 90.688 107.299 90.508C107.491 90.316 107.731 90.22 108.019 90.22C108.307 90.22 108.547 90.316 108.739 90.508C108.931 90.688 109.027 90.928 109.027 91.228C109.027 91.516 108.931 91.756 108.739 91.948C108.547 92.14 108.307 92.236 108.019 92.236ZM107.515 102.982C107.395 102.982 107.335 102.922 107.335 102.802V94.054C107.335 93.934 107.395 93.874 107.515 93.874H108.433C108.553 93.874 108.613 93.934 108.613 94.054V102.802C108.613 102.922 108.553 102.982 108.433 102.982H107.515ZM118.727 96.916C118.775 97.252 118.799 97.672 118.799 98.176V98.752C118.799 98.872 118.739 98.932 118.619 98.932H112.805C112.757 98.932 112.733 98.956 112.733 99.004C112.757 99.664 112.793 100.09 112.841 100.282C112.973 100.822 113.255 101.248 113.687 101.56C114.119 101.872 114.671 102.028 115.343 102.028C115.847 102.028 116.291 101.914 116.675 101.686C117.059 101.458 117.359 101.134 117.575 100.714C117.647 100.606 117.731 100.582 117.827 100.642L118.529 101.056C118.625 101.116 118.649 101.2 118.601 101.308C118.301 101.884 117.851 102.34 117.251 102.676C116.651 103 115.961 103.162 115.181 103.162C114.329 103.15 113.615 102.946 113.039 102.55C112.463 102.154 112.049 101.602 111.797 100.894C111.581 100.318 111.473 99.49 111.473 98.41C111.473 97.906 111.479 97.498 111.491 97.186C111.515 96.862 111.563 96.574 111.635 96.322C111.839 95.542 112.247 94.918 112.859 94.45C113.483 93.982 114.233 93.748 115.109 93.748C116.201 93.748 117.041 94.024 117.629 94.576C118.217 95.128 118.583 95.908 118.727 96.916ZM115.109 94.864C114.521 94.864 114.029 95.02 113.633 95.332C113.249 95.632 112.997 96.04 112.877 96.556C112.805 96.808 112.757 97.216 112.733 97.78C112.733 97.828 112.757 97.852 112.805 97.852H117.467C117.515 97.852 117.539 97.828 117.539 97.78C117.515 97.24 117.479 96.856 117.431 96.628C117.299 96.088 117.029 95.662 116.621 95.35C116.225 95.026 115.721 94.864 115.109 94.864ZM125.12 93.766C126.08 93.766 126.842 94.048 127.406 94.612C127.982 95.176 128.27 95.932 128.27 96.88V102.82C128.27 102.94 128.21 103 128.09 103H127.172C127.052 103 126.992 102.94 126.992 102.82V97.132C126.992 96.472 126.788 95.932 126.38 95.512C125.984 95.092 125.468 94.882 124.832 94.882C124.172 94.882 123.638 95.086 123.23 95.494C122.822 95.902 122.618 96.436 122.618 97.096V102.82C122.618 102.94 122.558 103 122.438 103H121.52C121.4 103 121.34 102.94 121.34 102.82V94.072C121.34 93.952 121.4 93.892 121.52 93.892H122.438C122.558 93.892 122.618 93.952 122.618 94.072V94.846C122.618 94.87 122.624 94.888 122.636 94.9C122.66 94.912 122.678 94.906 122.69 94.882C123.218 94.138 124.028 93.766 125.12 93.766ZM135.13 94.774C135.13 94.894 135.07 94.954 134.95 94.954H132.916C132.868 94.954 132.844 94.978 132.844 95.026V100.336C132.844 100.912 132.97 101.32 133.222 101.56C133.486 101.788 133.894 101.902 134.446 101.902H134.896C135.016 101.902 135.076 101.962 135.076 102.082V102.82C135.076 102.94 135.016 103 134.896 103C134.752 103.012 134.53 103.018 134.23 103.018C133.366 103.018 132.712 102.856 132.268 102.532C131.824 102.208 131.602 101.608 131.602 100.732V95.026C131.602 94.978 131.578 94.954 131.53 94.954H130.432C130.312 94.954 130.252 94.894 130.252 94.774V94.072C130.252 93.952 130.312 93.892 130.432 93.892H131.53C131.578 93.892 131.602 93.868 131.602 93.82V91.732C131.602 91.612 131.662 91.552 131.782 91.552H132.664C132.784 91.552 132.844 91.612 132.844 91.732V93.82C132.844 93.868 132.868 93.892 132.916 93.892H134.95C135.07 93.892 135.13 93.952 135.13 94.072V94.774ZM140.588 103.09C139.916 103.09 139.316 102.982 138.788 102.766C138.272 102.55 137.87 102.262 137.582 101.902C137.306 101.542 137.168 101.14 137.168 100.696V100.48C137.168 100.36 137.228 100.3 137.348 100.3H138.212C138.332 100.3 138.392 100.36 138.392 100.48V100.624C138.392 101.02 138.596 101.368 139.004 101.668C139.424 101.956 139.946 102.1 140.57 102.1C141.194 102.1 141.698 101.962 142.082 101.686C142.466 101.398 142.658 101.038 142.658 100.606C142.658 100.306 142.556 100.06 142.352 99.868C142.16 99.676 141.926 99.526 141.65 99.418C141.386 99.31 140.972 99.172 140.408 99.004C139.736 98.812 139.184 98.62 138.752 98.428C138.32 98.236 137.954 97.972 137.654 97.636C137.366 97.288 137.222 96.85 137.222 96.322C137.222 95.554 137.522 94.942 138.122 94.486C138.722 94.03 139.514 93.802 140.498 93.802C141.158 93.802 141.74 93.91 142.244 94.126C142.76 94.342 143.156 94.642 143.432 95.026C143.708 95.398 143.846 95.818 143.846 96.286V96.34C143.846 96.46 143.786 96.52 143.666 96.52H142.82C142.7 96.52 142.64 96.46 142.64 96.34V96.286C142.64 95.878 142.442 95.536 142.046 95.26C141.662 94.984 141.14 94.846 140.48 94.846C139.868 94.846 139.376 94.972 139.004 95.224C138.632 95.464 138.446 95.8 138.446 96.232C138.446 96.64 138.626 96.952 138.986 97.168C139.346 97.384 139.904 97.6 140.66 97.816C141.356 98.02 141.92 98.212 142.352 98.392C142.784 98.572 143.156 98.836 143.468 99.184C143.78 99.52 143.936 99.964 143.936 100.516C143.936 101.296 143.63 101.92 143.018 102.388C142.406 102.856 141.596 103.09 140.588 103.09Z" fill="#989899"/>
</svg>
